<?xml version="1.0" standalone="no"?>
<!DOCTYPE svg PUBLIC "-//W3C//DTD SVG 20010904//EN"
 "http://www.w3.org/TR/2001/REC-SVG-20010904/DTD/svg10.dtd">
<svg version="1.0" xmlns="http://www.w3.org/2000/svg"
 width="1280.000000pt" height="814.000000pt" viewBox="0 0 1280.000000 814.000000"
 preserveAspectRatio="xMidYMid meet">
<metadata>
Created by potrace 1.15, written by Peter Selinger 2001-2017
</metadata>
<g transform="translate(0.000000,814.000000) scale(0.100000,-0.100000)"
fill="#000000" stroke="none">
<path d="M6882 8125 c-12 -9 -38 -41 -57 -71 -31 -48 -38 -54 -70 -54 -59 0
-74 70 -19 90 29 12 32 40 4 40 -29 0 -70 -44 -70 -75 0 -33 24 -81 45 -89 31
-11 80 -6 101 12 11 9 33 38 48 64 29 52 60 67 105 52 44 -16 41 -89 -4 -100
-16 -4 -25 -13 -25 -25 0 -27 36 -24 65 6 31 30 35 101 7 135 -24 29 -98 38
-130 15z"/>
<path d="M9255 7950 c-42 -17 -68 -58 -68 -104 0 -60 22 -90 93 -126 68 -34
95 -68 86 -105 -9 -35 -51 -51 -82 -31 -12 9 -25 25 -29 36 -5 16 -15 20 -47
20 -32 0 -39 -3 -34 -16 3 -9 6 -22 6 -31 0 -8 13 -27 28 -43 58 -57 175 -47
219 19 49 73 20 152 -75 200 -70 35 -84 51 -80 87 6 54 59 58 83 6 7 -17 18
-22 47 -22 42 0 44 5 23 56 -22 53 -108 80 -170 54z"/>
<path d="M10080 7942 c-56 -28 -74 -71 -78 -187 -2 -56 1 -119 7 -142 21 -77
104 -120 179 -91 41 15 82 68 82 104 0 21 -5 24 -35 24 -30 0 -37 -4 -49 -35
-11 -26 -21 -35 -39 -35 -45 0 -61 32 -65 133 -5 118 11 171 51 175 33 4 57
-13 57 -39 0 -15 8 -19 40 -19 34 0 40 3 40 20 0 85 -105 135 -190 92z"/>
<path d="M9500 7785 c0 -183 8 -220 56 -252 18 -12 46 -18 84 -18 38 0 66 6
84 18 48 32 56 69 56 252 l0 165 -40 0 -40 0 0 -163 c0 -182 -7 -207 -60 -207
-53 0 -60 25 -60 207 l0 163 -40 0 -40 0 0 -165z"/>
<path d="M9850 7735 l0 -215 40 0 40 0 0 215 0 215 -40 0 -40 0 0 -215z"/>
<path d="M10330 7735 l0 -215 40 0 40 0 0 215 0 215 -40 0 -40 0 0 -215z"/>
<path d="M10490 7736 l0 -216 70 0 c90 0 143 21 172 68 18 30 23 55 26 133 5
112 -6 153 -49 195 -28 27 -36 29 -125 32 l-94 4 0 -216z m144 143 c33 -15 46
-56 46 -141 0 -83 -19 -134 -55 -148 -56 -21 -55 -23 -55 145 0 147 1 155 20
155 10 0 30 -5 44 -11z"/>
<path d="M10830 7735 l0 -215 115 0 c85 0 115 3 115 13 0 6 3 22 6 35 6 21 4
22 -75 22 l-81 0 0 60 0 60 70 0 70 0 0 35 0 35 -70 0 -70 0 0 55 0 55 75 0
75 0 0 30 0 30 -115 0 -115 0 0 -215z"/>
<path d="M8700 7895 c0 -51 -12 -45 140 -74 104 -20 106 -17 -40 -41 -99 -17
-98 -16 -102 -65 l-3 -45 177 0 178 0 0 25 0 24 -142 3 -143 3 120 19 c146 23
165 29 165 56 0 26 -19 33 -155 56 l-110 19 130 5 130 5 3 28 3 27 -175 0
-176 0 0 -45z"/>
<path d="M6725 7908 c-36 -19 -45 -41 -45 -105 l0 -63 175 0 c149 0 175 2 175
15 0 12 -15 15 -75 15 l-75 0 0 29 c0 47 -21 91 -51 106 -33 18 -76 19 -104 3z
m97 -45 c11 -10 18 -30 18 -55 l0 -38 -65 0 -65 0 0 37 c0 20 7 45 17 55 20
22 70 23 95 1z"/>
<path d="M3300 7688 c-18 -13 -49 -52 -69 -88 -34 -60 -40 -65 -73 -68 -29 -2
-39 1 -48 18 -14 27 10 70 40 70 17 0 20 7 20 40 0 34 -3 40 -20 40 -60 0
-110 -58 -110 -127 0 -77 50 -127 125 -125 62 0 87 20 131 98 41 73 69 93 112
78 23 -8 27 -15 27 -49 0 -36 -4 -42 -33 -55 -29 -12 -33 -18 -30 -50 3 -32 5
-35 32 -32 85 9 130 106 92 197 -30 71 -130 98 -196 53z"/>
<path d="M4500 7660 c0 -18 7 -20 71 -20 l70 0 -3 -52 -3 -53 -67 -3 c-52 -2
-68 -6 -68 -17 0 -13 27 -15 165 -15 138 0 165 2 165 15 0 11 -18 15 -77 17
l-78 3 -3 53 -3 52 80 0 c74 0 81 2 81 20 0 19 -7 20 -165 20 -158 0 -165 -1
-165 -20z"/>
<path d="M6679 7668 c-11 -39 -15 -38 173 -38 166 0 179 1 176 18 -3 15 -21
17 -176 20 -94 1 -172 1 -173 0z"/>
<path d="M2523 7610 c-35 -15 -56 -55 -49 -94 7 -38 24 -55 83 -85 46 -23 65
-60 43 -86 -19 -22 -48 -18 -66 10 -11 17 -25 25 -45 25 -34 0 -34 0 -15 -45
37 -88 196 -58 196 37 0 45 -20 75 -70 102 -59 32 -74 49 -65 76 9 27 55 28
62 0 7 -28 63 -29 63 -1 0 50 -80 86 -137 61z"/>
<path d="M2741 7594 c-55 -46 -37 -115 40 -154 51 -27 74 -61 59 -89 -16 -30
-57 -28 -72 4 -8 18 -19 25 -41 25 -27 0 -29 -2 -22 -27 9 -39 22 -51 65 -64
73 -22 140 23 140 95 0 33 -40 78 -90 101 -59 26 -69 85 -15 85 15 0 26 -7 30
-20 4 -14 15 -20 36 -20 32 0 35 7 18 43 -23 51 -100 62 -148 21z"/>
<path d="M736 7458 c-20 -84 -36 -156 -36 -160 0 -5 13 -8 29 -8 26 0 30 4 36
40 7 39 8 40 46 40 34 0 39 -3 45 -27 10 -50 13 -53 44 -53 16 0 30 3 30 8 0
4 -18 75 -38 157 l-38 150 -41 3 -40 3 -37 -153z m98 0 c7 -36 6 -38 -20 -38
-26 0 -26 1 -20 52 12 88 21 85 40 -14z"/>
<path d="M930 7596 c0 -12 42 -227 55 -283 4 -17 13 -23 35 -23 28 0 29 2 45
78 32 149 29 146 49 47 24 -127 23 -125 56 -125 22 0 31 6 35 23 3 12 18 84
34 160 l29 137 -28 0 c-34 0 -34 -2 -51 -118 -7 -51 -16 -89 -20 -85 -3 5 -14
52 -24 106 -18 95 -19 97 -46 97 -25 0 -28 -4 -39 -52 -6 -29 -16 -80 -23
-113 l-13 -60 -12 85 c-21 143 -20 140 -53 140 -18 0 -29 -5 -29 -14z"/>
<path d="M1301 7462 c-19 -81 -37 -153 -39 -159 -3 -9 6 -13 26 -13 26 0 31 4
39 38 8 35 11 37 49 40 41 3 41 3 48 -37 6 -37 9 -41 36 -41 17 0 30 3 30 8 0
4 -16 76 -36 160 l-37 152 -41 0 -41 0 -34 -148z m98 -24 c1 -13 -6 -18 -24
-18 -29 0 -29 -1 -13 76 l12 59 12 -50 c7 -27 13 -58 13 -67z"/>
<path d="M1520 7450 l0 -160 30 0 c29 0 29 0 32 68 3 60 5 67 24 70 36 5 54
-23 54 -84 0 -53 0 -54 30 -54 30 0 30 0 30 58 0 37 -6 66 -16 80 -15 21 -15
25 0 41 23 26 21 96 -4 121 -17 17 -33 20 -100 20 l-80 0 0 -160z m128 108
c21 -21 15 -68 -10 -77 -38 -14 -53 -7 -56 28 -2 18 -1 39 2 47 7 17 48 18 64
2z"/>
<path d="M1770 7450 l0 -160 90 0 c89 0 90 0 90 25 0 24 -3 25 -60 25 l-60 0
0 45 0 45 55 0 c52 0 55 1 55 25 0 24 -3 25 -55 25 l-55 0 0 40 0 40 55 0 c52
0 55 1 55 25 0 25 -1 25 -85 25 l-85 0 0 -160z"/>
<path d="M1990 7451 l0 -161 25 0 25 0 1 113 c0 127 0 127 59 -30 31 -82 32
-83 66 -83 l34 0 0 160 0 160 -31 0 -31 0 4 -104 c1 -57 1 -102 -2 -100 -2 3
-21 49 -41 102 -36 97 -36 97 -72 100 l-37 3 0 -160z"/>
<path d="M2260 7450 l0 -160 85 0 c47 0 85 4 85 9 0 5 3 16 6 25 5 14 -3 16
-55 16 l-61 0 0 44 0 45 53 3 c45 3 52 6 55 26 3 21 0 22 -52 22 l-56 0 0 40
0 40 55 0 c52 0 55 1 55 25 0 25 -1 25 -85 25 l-85 0 0 -160z"/>
<path d="M8698 7580 l-5 -30 126 0 c141 0 176 -10 176 -50 0 -40 -35 -50 -176
-50 l-126 0 5 -30 4 -30 129 0 c182 0 219 18 219 110 0 92 -37 110 -219 110
l-129 0 -4 -30z"/>
<path d="M6680 7540 c0 -17 8 -19 73 -22 l72 -3 3 -52 3 -53 -74 0 c-66 0 -75
-2 -80 -20 -5 -19 0 -20 175 -20 166 0 179 1 176 18 -3 14 -16 17 -86 20 l-82
3 0 54 0 55 85 0 c78 0 85 2 85 20 0 19 -7 20 -175 20 -167 0 -175 -1 -175
-20z"/>
<path d="M4524 7426 c-21 -17 -28 -33 -28 -59 0 -73 59 -101 197 -96 74 4 89
7 111 28 49 46 27 132 -36 147 -24 5 -28 3 -28 -15 0 -14 6 -21 18 -21 44 0
57 -58 20 -84 -16 -12 -47 -16 -113 -16 -66 0 -97 4 -113 16 -37 26 -24 84 20
84 11 0 18 7 18 20 0 28 -32 26 -66 -4z"/>
<path d="M3050 7275 l0 -135 35 0 c35 0 35 0 35 45 l0 45 190 0 190 0 0 40 0
40 -190 0 -190 0 0 50 0 50 -35 0 -35 0 0 -135z"/>
<path d="M8700 7255 l0 -105 25 0 c22 0 25 4 25 35 l0 34 148 3 147 3 0 30 0
30 -147 3 -148 3 0 34 c0 31 -3 35 -25 35 l-25 0 0 -105z"/>
<path d="M9412 7334 c-13 -9 -37 -40 -54 -71 -36 -63 -65 -82 -103 -65 -20 9
-25 19 -25 48 0 31 4 37 30 47 35 13 42 47 9 47 -77 0 -106 -119 -42 -170 57
-45 121 -17 171 75 32 60 69 78 110 54 22 -12 27 -22 27 -54 0 -35 -4 -42 -32
-55 -34 -15 -45 -50 -18 -50 35 0 74 30 85 66 15 46 0 106 -33 129 -28 20 -96
19 -125 -1z"/>
<path d="M6890 7303 c-21 -11 -44 -35 -58 -61 -40 -72 -96 -91 -123 -41 -12
24 11 69 36 69 8 0 15 9 15 20 0 24 -11 25 -49 5 -65 -33 -47 -144 25 -158 49
-9 77 7 119 68 47 68 82 86 121 60 35 -23 31 -74 -8 -93 -34 -16 -37 -42 -5
-42 62 0 93 112 45 157 -34 31 -77 36 -118 16z"/>
<path d="M4520 7200 c-16 -16 -20 -33 -20 -85 l0 -65 165 0 c158 0 165 1 165
20 0 18 -7 20 -75 20 l-75 0 0 33 c0 43 15 57 65 57 55 0 85 10 85 26 0 21
-118 19 -148 -2 -21 -15 -25 -15 -41 0 -26 23 -96 21 -121 -4z m110 -30 c11
-11 20 -33 20 -50 l0 -30 -60 0 -60 0 0 34 c0 58 60 86 100 46z"/>
<path d="M2315 7126 c-48 -21 -68 -51 -73 -110 -6 -74 14 -107 91 -151 84 -50
107 -73 107 -107 0 -47 -17 -68 -54 -68 -35 0 -59 20 -71 58 -6 20 -12 23 -48
20 -40 -3 -42 -4 -39 -33 11 -88 92 -136 194 -114 34 8 56 20 78 45 26 30 30
42 30 93 0 78 -25 113 -118 165 -76 42 -90 62 -78 111 13 50 96 36 96 -17 0
-15 8 -18 46 -18 l47 0 -6 36 c-3 20 -14 46 -24 57 -39 44 -119 59 -178 33z"/>
<path d="M2665 7121 c-45 -21 -61 -42 -70 -94 -14 -72 26 -133 115 -177 25
-12 53 -29 62 -37 26 -23 32 -70 13 -99 -13 -21 -23 -25 -53 -22 -32 3 -40 9
-55 41 -17 34 -22 37 -59 37 l-41 0 6 -36 c13 -76 66 -117 153 -117 93 0 154
58 154 146 0 69 -43 122 -135 167 -55 26 -80 60 -71 95 14 54 88 55 102 0 5
-22 11 -25 51 -25 l46 0 -7 32 c-19 94 -114 134 -211 89z"/>
<path d="M6 7103 c3 -16 24 -129 48 -253 l43 -225 41 -3 c32 -2 44 1 49 13 3
9 21 90 38 178 18 89 34 157 34 150 3 -32 60 -324 66 -333 3 -5 24 -10 45 -10
28 0 40 5 44 18 9 28 96 463 96 478 0 10 -13 14 -43 14 l-43 0 -23 -162 c-12
-90 -25 -170 -28 -178 -3 -8 -18 55 -34 140 -39 217 -33 200 -79 200 -33 0
-40 -4 -44 -22 -3 -13 -17 -84 -31 -158 -38 -199 -37 -197 -50 -90 -7 52 -18
134 -24 183 l-13 87 -49 0 c-48 0 -48 -1 -43 -27z"/>
<path d="M562 6878 l3 -253 130 0 130 0 6 37 6 37 -91 3 -91 3 -3 73 -3 72 86
0 85 0 0 40 0 40 -85 0 -85 0 0 60 0 59 87 3 87 3 0 35 0 35 -132 3 -132 3 2
-253z"/>
<path d="M892 6878 l3 -253 123 -3 c93 -2 123 0 126 10 3 7 7 25 10 41 l6 27
-90 0 -90 0 0 215 0 215 -45 0 -45 0 2 -252z"/>
<path d="M1202 6878 l3 -253 128 -3 127 -3 0 25 c0 13 3 31 6 40 5 14 -6 16
-85 16 l-91 0 0 215 0 215 -45 0 -45 0 2 -252z"/>
<path d="M1512 6878 l3 -253 37 -3 38 -3 2 183 3 183 65 -180 65 -180 50 0 50
0 3 253 2 252 -46 0 -46 0 4 -170 c2 -93 3 -170 2 -170 -1 0 -30 77 -64 170
l-63 170 -54 0 -53 0 2 -252z"/>
<path d="M1912 6878 l3 -253 130 0 130 0 3 38 3 37 -90 0 -91 0 0 75 0 75 86
0 85 0 -3 38 -3 37 -82 3 -83 3 0 59 0 60 85 0 85 0 0 40 0 40 -130 0 -130 0
2 -252z"/>
<path d="M8765 7123 c-11 -3 -30 -14 -42 -26 -20 -18 -23 -30 -23 -99 l0 -78
175 0 175 0 0 30 0 30 -75 0 -75 0 0 29 c0 38 12 45 85 51 57 5 60 7 63 33 l3
27 -68 0 c-47 0 -76 -5 -91 -16 -20 -14 -25 -14 -40 -1 -20 17 -59 26 -87 20z
m76 -90 c15 -41 5 -53 -46 -53 -44 0 -45 0 -45 33 0 42 5 47 47 47 27 0 35 -5
44 -27z"/>
<path d="M3050 7050 l0 -40 225 0 225 0 0 40 0 40 -225 0 -225 0 0 -40z"/>
<path d="M6677 7074 c-3 -3 -3 -12 0 -20 4 -11 34 -14 142 -15 l136 0 -120
-48 c-157 -62 -164 -66 -158 -91 5 -19 13 -20 179 -20 171 0 174 0 174 21 0
21 -2 22 -145 17 -79 -3 -142 -1 -139 3 3 5 11 9 17 9 7 0 69 23 140 51 113
46 127 54 127 75 l0 24 -173 0 c-96 0 -176 -3 -180 -6z"/>
<path d="M9200 7060 c0 -19 7 -20 185 -20 178 0 185 1 185 20 0 19 -7 20 -185
20 -178 0 -185 -1 -185 -20z"/>
<path d="M5095 7056 c-42 -18 -82 -68 -96 -119 -15 -55 -15 -220 1 -276 6 -25
26 -59 45 -78 28 -28 40 -33 83 -33 34 0 57 6 75 20 25 20 25 20 30 0 4 -15
14 -20 36 -20 l31 0 0 145 0 146 -77 -3 -78 -3 0 -35 c0 -32 3 -35 33 -38 30
-3 32 -6 32 -42 0 -55 -15 -88 -44 -96 -62 -15 -86 37 -86 184 0 92 16 157 43
174 33 21 87 -7 87 -45 0 -13 10 -17 45 -17 51 0 54 7 28 71 -26 66 -115 97
-188 65z"/>
<path d="M5380 6805 l0 -256 43 3 42 3 3 108 3 107 38 0 c56 0 71 -22 71 -103
0 -93 11 -117 54 -117 19 0 37 3 39 8 2 4 1 51 -3 104 -5 80 -9 101 -27 120
l-22 23 24 28 c50 57 40 158 -18 201 -24 18 -46 22 -138 24 l-109 4 0 -257z
m197 159 c36 -49 1 -116 -63 -118 l-39 -1 -3 74 -3 74 47 -6 c30 -3 53 -12 61
-23z"/>
<path d="M5750 6804 l0 -255 43 3 42 3 3 253 2 252 -45 0 -45 0 0 -256z"/>
<path d="M5930 6805 l0 -255 124 0 c69 0 127 3 129 8 3 4 8 22 12 40 l7 32
-91 0 -91 0 0 75 0 75 80 0 80 0 0 40 0 40 -80 0 -80 0 0 60 0 60 85 0 85 0 0
40 0 40 -130 0 -130 0 0 -255z"/>
<path d="M6255 7048 c-3 -8 -4 -121 -3 -253 l3 -240 45 0 45 0 0 105 0 105 80
5 80 5 3 37 3 37 -82 3 -82 3 0 60 0 60 84 5 84 5 0 35 0 35 -128 3 c-97 2
-129 0 -132 -10z"/>
<path d="M4663 6977 c-152 -37 -163 -42 -163 -63 0 -18 8 -25 38 -34 51 -14
280 -70 286 -70 3 0 6 8 6 19 0 15 -10 20 -44 25 -53 8 -68 24 -64 67 3 30 7
34 51 45 56 14 60 17 55 37 -2 12 -33 7 -165 -26z m23 -94 c-5 -5 -92 12 -126
24 -8 3 17 13 55 22 l70 16 3 -28 c2 -16 1 -31 -2 -34z"/>
<path d="M9240 6962 c-95 -47 -40 -197 66 -177 35 6 44 16 94 97 31 50 60 65
105 54 49 -13 46 -97 -5 -114 -21 -8 -30 -18 -30 -33 0 -18 4 -20 28 -14 64
16 95 84 68 149 -17 42 -42 56 -95 56 -49 0 -82 -26 -119 -95 -23 -43 -32 -50
-60 -53 -44 -4 -64 13 -60 52 2 22 11 35 31 44 16 8 27 21 27 33 0 23 -6 24
-50 1z"/>
<path d="M3050 6845 l0 -115 225 0 225 0 0 40 0 40 -100 0 -100 0 0 70 0 70
-35 0 -35 0 0 -70 0 -70 -55 0 -55 0 0 75 0 75 -35 0 -35 0 0 -115z"/>
<path d="M8879 6850 c-86 -20 -162 -39 -170 -42 -9 -4 -14 -19 -13 -44 l1 -39
159 -37 c196 -46 196 -46 192 -10 -3 23 -9 28 -45 36 -42 9 -43 10 -43 51 0
40 1 41 43 51 33 7 43 14 45 33 2 13 0 27 -5 31 -4 4 -78 -10 -164 -30z m21
-85 c0 -29 5 -28 -79 -13 l-66 12 55 12 c84 18 90 17 90 -11z"/>
<path d="M6734 6806 c-85 -37 -84 -136 2 -172 19 -8 67 -14 111 -14 136 0 183
26 183 100 0 75 -47 100 -185 100 -45 -1 -94 -7 -111 -14z m225 -37 c42 -15
52 -53 22 -82 -18 -19 -35 -23 -112 -26 -96 -3 -143 8 -160 40 -12 24 4 57 34
69 32 13 178 12 216 -1z"/>
<path d="M4500 6700 l0 -80 165 0 165 0 0 80 c0 64 -3 80 -15 80 -12 0 -15
-13 -15 -60 l0 -60 -65 0 -65 0 0 55 c0 42 -3 55 -15 55 -12 0 -15 -13 -15
-55 l0 -55 -55 0 -55 0 0 60 c0 47 -3 60 -15 60 -12 0 -15 -16 -15 -80z"/>
<path d="M3692 6704 c3 -38 7 -42 140 -134 l137 -95 -140 -3 -140 -3 3 -32 3
-32 285 0 285 0 3 33 3 32 -108 0 c-104 1 -110 2 -147 30 l-38 29 146 73 c143
71 146 73 146 105 0 18 -2 33 -5 33 -3 0 -81 -38 -173 -84 l-167 -83 -50 36
c-27 21 -81 59 -118 85 l-68 49 3 -39z"/>
<path d="M7725 6734 c-5 -1 -117 -28 -247 -60 l-238 -57 0 -62 0 -61 243 -57
c133 -32 245 -57 250 -57 4 0 7 20 7 44 l0 45 -60 12 -60 12 0 63 0 63 49 7
c27 3 54 10 60 14 15 8 11 98 -4 94z m-185 -186 c0 -37 -2 -40 -22 -35 -13 3
-59 13 -103 22 -44 9 -81 18 -83 20 -5 4 193 42 201 38 4 -2 7 -22 7 -45z"/>
<path d="M9200 6695 l0 -25 185 0 185 0 0 25 0 25 -185 0 -185 0 0 -25z"/>
<path d="M3050 6551 l0 -121 225 0 225 0 0 120 0 120 -35 0 -35 0 0 -80 0 -80
-65 0 -65 0 0 75 0 75 -35 0 -35 0 0 -75 0 -75 -55 0 -54 0 -3 78 -3 77 -32 3
-33 3 0 -120z"/>
<path d="M8729 6631 c-21 -17 -25 -30 -29 -100 l-5 -81 178 0 177 0 0 30 0 30
-75 0 -75 0 0 45 c0 65 -31 95 -98 95 -34 0 -57 -6 -73 -19z m109 -53 c7 -7
12 -25 12 -40 0 -27 -2 -28 -50 -28 -48 0 -50 1 -50 28 0 35 16 52 50 52 14 0
31 -5 38 -12z"/>
<path d="M9225 6585 c-22 -21 -25 -33 -25 -100 l0 -75 185 0 c178 0 185 1 185
20 0 18 -7 20 -85 20 l-85 0 0 39 c0 53 20 71 78 71 68 0 92 9 92 32 0 19 -5
20 -75 16 -54 -4 -81 -10 -96 -24 -13 -12 -23 -15 -27 -8 -26 40 -111 45 -147
9z m113 -31 c17 -12 22 -25 22 -60 l0 -44 -65 0 -65 0 0 40 c0 68 55 101 108
64z"/>
<path d="M4713 6573 c-24 -5 -57 -41 -85 -91 -31 -58 -98 -51 -98 9 0 22 6 30
25 35 24 6 37 44 15 44 -25 0 -60 -26 -68 -50 -22 -62 12 -110 78 -110 40 0
60 17 99 83 13 21 33 40 48 43 69 18 104 -59 43 -94 -16 -9 -30 -23 -30 -29 0
-20 34 -15 64 8 20 16 26 29 26 60 0 22 -4 49 -10 59 -8 16 -63 42 -79 39 -3
-1 -16 -4 -28 -6z"/>
<path d="M6680 6540 c0 -19 7 -20 175 -20 168 0 175 1 175 20 0 19 -7 20 -175
20 -168 0 -175 -1 -175 -20z"/>
<path d="M2410 6451 l0 -39 83 -30 c45 -16 89 -31 97 -34 8 -3 -29 -19 -82
-37 l-98 -33 0 -44 0 -44 38 16 c196 83 232 94 312 94 l80 0 0 40 0 40 -79 0
c-72 0 -89 4 -211 55 -73 30 -134 55 -136 55 -2 0 -4 -18 -4 -39z"/>
<path d="M6680 6385 c0 -78 3 -95 15 -95 11 0 15 11 15 40 l0 40 160 0 c153 0
160 1 160 20 0 19 -7 20 -160 20 l-160 0 0 35 c0 24 -5 35 -15 35 -12 0 -15
-17 -15 -95z"/>
<path d="M9692 6318 l3 -153 25 0 c24 0 25 3 28 63 l3 62 35 0 c63 0 103 69
78 135 -10 26 -59 45 -119 45 l-56 0 3 -152z m118 83 c5 -11 10 -24 10 -30 0
-16 -30 -41 -51 -41 -16 0 -19 7 -19 45 0 41 2 45 25 45 14 0 29 -8 35 -19z"/>
<path d="M9925 6445 c-26 -25 -32 -63 -15 -95 5 -10 32 -32 60 -49 42 -26 50
-36 50 -60 0 -21 -6 -32 -20 -36 -23 -7 -50 10 -50 31 0 9 -11 14 -31 14 -27
0 -30 -3 -24 -22 4 -13 18 -34 33 -47 21 -19 33 -22 71 -18 54 6 81 34 81 84
0 38 -31 75 -88 105 -23 12 -32 24 -32 43 0 35 28 44 51 17 22 -28 59 -29 59
-2 0 58 -98 82 -145 35z"/>
<path d="M10090 6462 c0 -4 14 -41 32 -82 22 -51 34 -97 38 -145 5 -67 6 -70
30 -70 24 0 25 4 31 70 4 46 17 95 38 142 37 86 38 93 7 93 -19 0 -27 -9 -40
-47 -34 -93 -31 -92 -56 -20 -22 61 -26 67 -52 67 -15 0 -28 -3 -28 -8z"/>
<path d="M10341 6451 c-55 -55 -54 -237 2 -276 48 -34 125 -5 142 53 6 19 3
22 -24 22 -21 0 -31 -5 -31 -15 0 -8 -9 -19 -19 -25 -33 -17 -51 22 -51 106 0
55 4 77 19 95 16 20 21 21 35 10 9 -7 16 -20 16 -27 0 -9 11 -14 30 -14 17 0
30 5 30 10 0 20 -29 68 -45 74 -33 12 -85 6 -104 -13z"/>
<path d="M10522 6318 l3 -153 25 0 c24 0 25 3 28 68 l3 67 34 0 34 0 3 -67 c3
-65 4 -68 28 -68 l25 0 0 150 0 150 -27 3 c-28 3 -28 3 -28 -57 l0 -61 -35 0
-35 0 0 60 0 60 -30 0 -31 0 3 -152z"/>
<path d="M10797 6459 c-44 -26 -63 -170 -33 -244 25 -58 93 -74 141 -32 51 44
53 211 3 264 -23 25 -78 31 -111 12z m80 -60 c15 -29 17 -127 3 -163 -10 -28
-41 -35 -58 -13 -16 20 -23 101 -13 147 14 64 44 76 68 29z"/>
<path d="M10990 6315 l0 -155 75 0 c41 0 75 4 75 9 0 5 3 16 6 25 5 13 -3 16
-50 16 l-56 0 0 130 0 130 -25 0 -25 0 0 -155z"/>
<path d="M11194 6446 c-27 -23 -29 -30 -33 -111 -5 -123 23 -175 92 -175 68 0
97 48 97 163 0 60 -4 80 -23 108 -19 28 -30 35 -64 37 -32 2 -47 -2 -69 -22z
m84 -29 c29 -34 26 -172 -4 -201 -36 -37 -69 29 -62 124 6 77 36 113 66 77z"/>
<path d="M11425 6446 c-30 -30 -39 -78 -33 -167 4 -55 10 -75 28 -94 26 -27
77 -34 98 -13 10 10 15 10 21 -1 5 -8 16 -11 25 -8 13 5 16 22 16 87 l0 80
-40 0 c-22 0 -43 1 -47 3 -5 1 -9 -8 -11 -20 -2 -16 3 -22 20 -25 19 -2 22 -8
19 -33 -4 -40 -8 -45 -36 -45 -18 0 -27 7 -32 28 -9 33 -9 117 0 153 11 43 59
49 70 8 5 -20 41 -27 52 -9 8 13 -21 66 -40 74 -37 14 -86 6 -110 -18z"/>
<path d="M11609 6423 c11 -26 29 -70 40 -96 14 -31 21 -70 21 -108 0 -56 1
-59 25 -59 24 0 25 3 25 53 0 40 11 80 40 152 22 54 40 100 40 102 0 3 -12 3
-27 1 -23 -2 -31 -11 -46 -53 -10 -27 -20 -57 -23 -65 -4 -9 -15 11 -28 50
-21 60 -25 65 -54 68 l-32 3 19 -48z"/>
<path d="M8700 6305 l0 -105 25 0 c22 0 25 4 25 35 l0 34 148 3 147 3 0 30 0
30 -147 3 -148 3 0 34 c0 31 -3 35 -25 35 l-25 0 0 -105z"/>
<path d="M5035 6386 c-33 -14 -55 -52 -55 -92 0 -43 27 -79 79 -108 59 -32 86
-65 76 -96 -15 -46 -75 -46 -90 0 -5 15 -15 20 -42 20 -33 0 -35 -1 -29 -27
11 -45 60 -83 106 -83 56 0 87 15 110 52 39 65 16 131 -60 172 -63 34 -80 52
-80 81 0 47 65 54 76 9 5 -19 13 -24 40 -24 38 0 39 3 23 49 -19 54 -89 76
-154 47z"/>
<path d="M5694 6381 c-45 -28 -64 -83 -64 -192 0 -99 14 -147 51 -173 30 -20
78 -21 107 0 12 8 22 10 22 5 0 -6 14 -11 30 -11 l30 0 0 105 0 105 -60 0
c-57 0 -60 -1 -60 -24 0 -18 6 -25 23 -28 45 -6 29 -108 -17 -108 -42 0 -56
33 -56 135 0 104 13 139 53 143 21 3 29 -2 39 -22 9 -21 18 -26 45 -26 31 0
34 2 28 23 -25 80 -101 111 -171 68z"/>
<path d="M5230 6360 c0 -28 2 -30 40 -30 l40 0 0 -160 0 -160 35 0 35 0 0 160
0 160 40 0 c38 0 40 2 40 30 l0 30 -115 0 -115 0 0 -30z"/>
<path d="M5500 6200 l0 -190 35 0 35 0 0 190 0 190 -35 0 -35 0 0 -190z"/>
<path d="M5930 6200 l0 -190 30 0 30 0 1 153 c0 83 3 147 5 141 2 -5 14 -73
27 -150 l22 -139 32 -3 c35 -4 35 -5 68 188 9 52 18 97 21 99 2 2 4 -62 4
-142 l0 -147 33 0 32 0 0 190 0 190 -52 0 -51 0 -24 -125 c-14 -75 -26 -118
-30 -108 -3 10 -14 66 -24 126 l-17 107 -54 0 -53 0 0 -190z"/>
<path d="M6355 6368 c-3 -13 -21 -90 -40 -173 -19 -82 -37 -158 -39 -167 -3
-15 3 -18 30 -18 29 0 35 4 40 28 14 62 13 62 58 62 43 0 44 0 55 -45 11 -43
13 -45 46 -45 32 0 35 2 30 23 -37 158 -77 326 -81 340 -4 13 -16 17 -49 17
-38 0 -45 -3 -50 -22z m75 -180 c0 -23 -4 -28 -23 -28 -13 0 -26 2 -29 5 -3 3
2 40 10 82 l16 77 12 -54 c7 -30 13 -67 14 -82z"/>
<path d="M4800 6311 l0 -61 -65 0 -65 0 0 55 c0 42 -3 55 -15 55 -12 0 -15
-13 -15 -55 l0 -55 -55 0 -55 0 0 55 c0 42 -3 55 -15 55 -12 0 -15 -15 -15
-75 l0 -75 165 0 166 0 -3 77 c-2 50 -7 78 -15 81 -10 3 -13 -13 -13 -57z"/>
<path d="M3050 6315 l0 -35 148 0 147 -1 -105 -39 c-58 -22 -124 -47 -147 -56
-43 -15 -43 -16 -43 -65 l0 -49 225 0 225 0 0 40 0 40 -157 0 -158 1 158 57
157 57 0 42 0 43 -225 0 -225 0 0 -35z"/>
<path d="M9219 6321 c-52 -53 -32 -136 41 -165 52 -21 207 -22 255 -2 50 21
72 72 56 126 -12 39 -49 70 -86 70 -27 0 -17 -35 15 -47 32 -12 50 -55 33 -82
-27 -44 -219 -55 -278 -17 -39 25 -32 75 12 96 40 19 45 50 7 50 -15 0 -38
-12 -55 -29z"/>
<path d="M7240 6261 c0 -58 3 -71 18 -75 9 -3 76 -17 147 -31 72 -14 141 -28
155 -32 16 -3 -35 -16 -140 -34 -91 -16 -168 -29 -172 -29 -5 0 -8 -31 -8 -70
l0 -70 250 0 250 0 0 40 0 40 -197 2 -198 3 140 23 c77 13 166 28 198 34 l57
11 0 42 0 42 -147 28 c-297 55 -294 53 -60 54 l207 1 0 45 0 45 -250 0 -250 0
0 -69z"/>
<path d="M4045 6306 c-40 -18 -66 -48 -106 -124 -44 -83 -61 -97 -116 -97 -53
0 -83 28 -83 80 0 35 19 58 63 74 21 8 27 17 27 42 0 30 -1 31 -32 25 -77 -15
-110 -64 -105 -154 3 -55 7 -67 35 -95 30 -30 37 -32 102 -32 62 0 72 3 99 29
16 15 44 56 62 89 47 88 71 107 134 107 66 0 95 -27 95 -86 0 -50 -22 -81 -63
-92 -27 -7 -33 -14 -35 -40 -4 -39 12 -41 75 -13 53 25 77 68 77 141 1 67 -24
115 -74 141 -40 22 -112 24 -155 5z"/>
<path d="M6843 6267 c-146 -37 -162 -43 -166 -64 -2 -13 -1 -25 3 -28 4 -2 76
-21 161 -40 85 -20 162 -38 172 -41 12 -4 17 0 17 15 0 16 -11 22 -55 32 l-55
12 0 47 c0 47 0 48 38 54 62 11 72 17 72 37 0 24 6 25 -187 -24z m37 -73 c0
-31 -3 -35 -20 -29 -10 3 -47 12 -82 19 -58 12 -60 14 -33 21 17 4 44 11 60
15 64 17 75 13 75 -26z"/>
<path d="M2485 6166 c-59 -26 -70 -49 -73 -152 l-4 -94 216 0 216 0 0 40 0 40
-84 0 -84 0 -7 54 c-8 66 -33 102 -83 116 -47 13 -60 12 -97 -4z m93 -82 c15
-11 22 -25 22 -50 l0 -34 -65 0 -65 0 0 30 c0 58 60 88 108 54z"/>
<path d="M8877 6147 c-18 -19 -41 -49 -52 -68 -16 -27 -27 -34 -50 -34 -25 0
-30 4 -30 25 0 16 8 28 23 35 32 14 31 65 -1 65 -74 0 -105 -114 -45 -170 25
-23 93 -27 120 -7 9 7 29 35 45 62 33 55 71 77 97 55 25 -20 20 -59 -9 -72
-18 -8 -25 -19 -25 -40 0 -38 32 -38 71 1 24 24 29 38 29 76 0 99 -106 143
-173 72z"/>
<path d="M4544 6146 c-38 -17 -44 -32 -44 -102 l0 -54 165 0 c140 0 165 2 165
15 0 12 -15 15 -75 15 l-75 0 0 39 c0 22 5 43 11 47 6 3 40 9 75 12 50 4 64 8
64 21 0 13 -11 15 -67 13 -45 -3 -74 -9 -86 -20 -13 -12 -20 -13 -25 -5 -7 11
-55 33 -70 33 -4 -1 -21 -7 -38 -14z m87 -47 c13 -13 19 -30 17 -47 -3 -25 -6
-27 -60 -30 l-58 -3 0 35 c0 62 58 88 101 45z"/>
<path d="M8256 6075 c-99 -35 -131 -109 -131 -300 0 -147 16 -214 63 -257 43
-41 69 -49 138 -47 62 2 68 0 116 -36 l51 -39 28 34 c16 19 29 37 29 40 0 3
-21 20 -45 38 -43 33 -44 35 -30 61 39 76 45 294 10 392 -20 57 -67 104 -120
118 -50 14 -61 13 -109 -4z m106 -103 c27 -23 41 -116 35 -234 -6 -137 -23
-173 -83 -173 -36 0 -41 3 -59 40 -17 34 -20 60 -20 175 0 147 10 184 54 206
26 13 46 9 73 -14z"/>
<path d="M7930 5780 l0 -300 50 0 50 0 0 300 0 300 -50 0 -50 0 0 -300z"/>
<path d="M6999 6062 c0 -4 -1 -32 -2 -62 l-2 -55 -155 -3 c-148 -2 -179 -9
-164 -34 3 -4 84 -8 180 -8 l174 0 0 79 c0 61 -3 80 -15 85 -8 3 -15 2 -16 -2z"/>
<path d="M3430 5940 l0 -80 -65 0 -65 0 0 75 0 75 -35 0 -35 0 0 -75 0 -75
-55 0 -55 0 0 75 0 75 -35 0 -35 0 0 -115 0 -115 225 0 225 0 0 120 0 120 -35
0 -35 0 0 -80z"/>
<path d="M8783 5929 c-75 -18 -112 -87 -81 -154 17 -38 62 -58 143 -63 127 -8
205 31 205 102 0 50 -18 83 -55 100 -41 20 -158 28 -212 15z m195 -75 c29 -20
28 -40 -5 -61 -39 -26 -184 -25 -213 2 -50 45 -7 75 110 75 61 0 92 -4 108
-16z"/>
<path d="M9251 5927 c-41 -21 -64 -61 -63 -112 0 -60 19 -87 88 -127 31 -18
66 -45 76 -59 40 -53 -12 -121 -66 -86 -13 9 -27 26 -31 37 -5 16 -15 20 -46
20 -38 0 -39 -1 -33 -27 15 -67 62 -103 134 -103 57 0 107 29 126 75 34 82 8
140 -88 196 -69 40 -89 66 -80 101 12 47 76 41 88 -7 5 -21 12 -25 45 -25 44
0 48 10 25 65 -24 57 -114 84 -175 52z"/>
<path d="M9504 5931 c-2 -2 -4 -105 -4 -228 l0 -223 120 0 120 0 0 35 0 35
-80 0 -80 0 0 65 0 65 75 0 75 0 0 35 0 35 -75 0 -75 0 0 55 0 55 75 0 75 0 0
38 0 37 -111 0 c-61 0 -113 -2 -115 -4z"/>
<path d="M9794 5931 c-2 -2 -4 -105 -4 -228 l0 -223 114 0 c114 0 114 0 120
25 4 14 4 30 1 35 -4 6 -40 10 -81 10 l-74 0 0 193 0 192 -36 0 c-20 0 -38 -2
-40 -4z"/>
<path d="M10894 5928 c-3 -5 -104 -436 -104 -445 0 -2 18 -3 39 -3 l40 0 11
55 11 55 53 0 53 0 9 -52 9 -53 43 -3 c40 -3 42 -2 37 20 -3 13 -25 113 -51
223 -25 110 -47 201 -49 204 -7 6 -97 6 -101 -1z m80 -230 l7 -38 -36 0 c-41
0 -40 -2 -20 103 8 43 15 82 16 85 1 7 22 -89 33 -150z"/>
<path d="M11523 5932 l-53 -3 0 -225 0 -224 35 0 35 0 1 183 1 182 22 -135
c13 -74 26 -156 30 -182 7 -48 8 -48 45 -48 l38 0 27 163 c16 89 31 173 35
187 4 14 6 -59 3 -162 l-5 -188 42 0 41 0 0 225 0 225 -50 0 c-27 0 -53 0 -57
1 -5 0 -22 -69 -39 -153 -26 -126 -33 -147 -38 -118 -3 19 -15 87 -26 150 -11
63 -23 117 -28 120 -4 3 -31 4 -59 2z"/>
<path d="M10070 5705 l0 -225 40 0 40 0 0 95 0 95 70 0 70 0 0 40 0 40 -70 0
-70 0 0 55 0 55 75 0 75 0 0 35 0 35 -115 0 -115 0 0 -225z"/>
<path d="M10480 5705 l0 -225 40 0 40 0 0 100 0 100 50 0 50 0 1 -92 c1 -51 1
-96 0 -100 0 -5 19 -8 44 -8 l45 0 0 225 0 225 -44 0 -44 0 0 -87 0 -88 -51
-3 -51 -3 0 90 0 91 -40 0 -40 0 0 -225z"/>
<path d="M11140 5705 l0 -225 40 0 40 0 0 95 0 95 33 0 c54 0 62 -11 67 -102
l5 -83 39 -3 38 -3 -3 90 c-3 75 -7 93 -26 113 l-22 23 23 22 c46 44 40 143
-11 182 -22 18 -40 21 -124 21 l-99 0 0 -225z m165 151 c22 -16 26 -76 6 -100
-8 -10 -29 -16 -52 -16 l-39 0 0 65 0 65 33 0 c18 0 42 -6 52 -14z"/>
<path d="M3692 5888 l3 -33 288 -3 287 -2 0 35 0 35 -291 0 -290 0 3 -32z"/>
<path d="M2615 5831 l-200 -48 -3 -51 c-3 -47 -1 -52 20 -57 13 -3 100 -23
193 -45 94 -22 180 -42 193 -45 20 -5 22 -2 22 34 0 37 -2 39 -37 45 -73 13
-73 13 -73 66 l0 49 55 11 55 11 0 40 c0 25 -4 39 -12 38 -7 0 -103 -22 -213
-48z m53 -103 c-2 -18 -6 -32 -11 -31 -4 1 -41 7 -82 14 -41 6 -75 15 -75 19
0 7 94 26 143 29 26 1 28 -2 25 -31z"/>
<path d="M6998 5798 l-3 -63 -67 -3 -68 -3 0 61 c0 46 -3 60 -15 60 -10 0 -15
-15 -17 -57 l-3 -58 -57 -3 -58 -3 0 61 c0 50 -3 60 -17 60 -16 0 -18 -10 -16
-77 l1 -78 176 -3 177 -2 -3 81 c-2 53 -7 84 -15 86 -8 3 -13 -15 -15 -59z"/>
<path d="M4984 5822 c-44 -28 -59 -72 -59 -177 0 -130 33 -178 125 -178 83 0
119 44 127 156 6 83 -7 145 -40 183 -31 36 -108 44 -153 16z m123 -49 c14 -21
18 -48 18 -119 0 -79 -3 -97 -21 -121 -29 -39 -79 -39 -108 0 -18 24 -21 43
-21 121 0 116 15 146 75 146 32 0 43 -5 57 -27z"/>
<path d="M4463 5808 c3 -13 22 -94 43 -181 37 -156 38 -158 63 -155 25 3 28
11 62 147 22 86 39 137 42 125 3 -10 15 -59 27 -109 38 -164 38 -165 65 -165
21 0 27 8 39 53 22 76 76 290 76 299 0 5 -10 8 -23 8 -20 0 -24 -11 -51 -127
-16 -71 -32 -136 -36 -146 -4 -12 -19 35 -40 127 -33 143 -34 146 -60 146 -26
0 -27 -4 -61 -144 -19 -79 -37 -139 -40 -133 -4 7 -9 30 -13 52 -4 22 -16 82
-27 133 -19 86 -22 92 -46 92 -21 0 -24 -4 -20 -22z"/>
<path d="M5250 5650 l0 -180 25 0 c25 0 25 1 25 85 l0 85 39 0 c63 0 84 -25
89 -104 4 -62 6 -66 28 -66 24 0 24 1 18 73 -5 51 -12 78 -26 94 -17 18 -17
22 -5 30 52 30 46 127 -10 152 -13 6 -60 11 -103 11 l-80 0 0 -180z m158 134
c28 -19 29 -67 2 -94 -14 -14 -33 -20 -65 -20 l-45 0 0 65 0 65 43 0 c23 0 53
-7 65 -16z"/>
<path d="M5550 5650 l0 -180 25 0 c25 0 25 1 25 85 l0 85 39 0 c62 0 82 -24
88 -103 5 -62 8 -67 29 -67 22 0 23 2 17 73 -4 52 -11 78 -25 94 -17 18 -17
22 -5 30 52 30 46 127 -10 152 -13 6 -60 11 -103 11 l-80 0 0 -180z m158 134
c28 -19 29 -67 2 -94 -14 -14 -33 -20 -65 -20 l-45 0 0 65 0 65 43 0 c23 0 53
-7 65 -16z"/>
<path d="M5850 5650 l0 -180 25 0 25 0 0 180 0 180 -25 0 -25 0 0 -180z"/>
<path d="M5990 5650 l0 -181 103 3 c83 2 102 6 102 18 0 12 -17 16 -80 18
l-80 3 3 69 4 70 69 0 c55 0 69 3 69 15 0 12 -14 15 -70 15 l-70 0 0 60 0 60
75 0 c60 0 75 3 75 15 0 12 -18 15 -100 15 l-100 0 0 -180z"/>
<path d="M6250 5650 l0 -180 74 0 c120 0 165 44 173 169 6 86 -12 138 -56 168
-28 19 -47 23 -112 23 l-79 0 0 -180z m150 135 c37 -19 53 -70 48 -151 -5 -78
-29 -115 -82 -127 -65 -16 -66 -14 -66 148 l0 145 35 0 c20 0 49 -7 65 -15z"/>
<path d="M7240 5781 l0 -51 198 0 c145 0 203 -3 216 -13 26 -19 24 -76 -4 -99
-20 -16 -43 -18 -216 -18 l-194 0 0 -45 0 -45 208 0 c190 0 210 2 240 20 84
51 83 212 -1 274 -26 19 -45 21 -238 24 l-209 3 0 -50z"/>
<path d="M3771 5742 c-62 -31 -75 -60 -79 -177 l-4 -105 291 0 291 0 0 30 0
30 -136 0 -137 0 6 61 c8 92 21 102 154 108 l108 6 3 32 3 31 -83 -4 c-144 -8
-159 -11 -188 -39 -27 -26 -29 -26 -39 -7 -26 48 -127 67 -190 34z m154 -77
c21 -20 25 -34 25 -85 l0 -60 -100 0 -100 0 0 64 c0 58 3 67 26 85 39 31 117
29 149 -4z"/>
<path d="M3332 5720 c-18 -4 -43 -17 -55 -28 -22 -20 -22 -20 -46 -1 -27 22
-86 25 -126 7 -42 -19 -55 -56 -55 -158 l0 -90 225 0 225 0 0 85 c0 51 -6 99
-14 120 -22 51 -90 80 -154 65z m92 -102 c9 -12 16 -37 16 -55 l0 -33 -75 0
-75 0 0 33 c0 53 24 77 75 77 34 0 47 -5 59 -22z m-204 -7 c5 -11 10 -33 10
-50 l0 -31 -60 0 -60 0 0 31 c0 51 16 69 60 69 29 0 42 -5 50 -19z"/>
<path d="M8753 5665 c-43 -18 -53 -42 -53 -124 l0 -71 175 0 175 0 0 30 0 29
-72 3 -73 3 -5 46 c-7 57 -21 76 -69 89 -44 12 -39 12 -78 -5z m85 -67 c7 -7
12 -25 12 -40 0 -27 -2 -28 -50 -28 l-50 0 0 34 c0 19 6 37 13 39 23 10 63 7
75 -5z"/>
<path d="M6705 5616 c-15 -11 -21 -31 -25 -86 -3 -39 -3 -73 -1 -76 2 -2 82
-4 178 -4 166 0 173 1 173 20 0 18 -7 20 -80 20 l-80 0 0 39 c0 21 6 43 13 49
7 6 42 12 77 14 52 2 65 6 68 21 3 15 -5 17 -65 17 -47 0 -76 -5 -91 -16 -21
-15 -25 -15 -41 0 -22 20 -100 21 -126 2z m112 -38 c7 -6 13 -28 13 -49 l0
-39 -60 0 -60 0 0 39 c0 30 6 44 23 56 23 16 60 13 84 -7z"/>
<path d="M2462 5531 c-43 -27 -52 -55 -52 -157 l0 -84 215 0 215 0 0 40 0 40
-90 0 -90 0 0 34 c0 47 19 58 105 64 l75 5 0 36 0 37 -62 -3 c-93 -5 -125 -12
-138 -29 -11 -13 -16 -12 -36 7 -33 31 -100 36 -142 10z m109 -71 c14 -8 19
-21 19 -50 l0 -40 -60 0 -60 0 0 32 c0 56 50 85 101 58z"/>
<path d="M7475 5401 l-230 -56 -3 -62 c-3 -58 -1 -63 20 -68 82 -18 446 -106
461 -111 16 -5 18 0 15 42 -3 52 3 47 -91 68 -27 6 -28 8 -25 68 l3 62 55 10
55 11 3 48 c3 40 0 47 -15 46 -10 -1 -121 -27 -248 -58z m65 -122 c0 -41 0
-41 -32 -35 -18 4 -63 12 -100 18 -38 7 -68 15 -68 18 0 7 138 37 178 39 19 1
22 -4 22 -40z"/>
<path d="M7910 5130 l0 -180 30 0 30 0 0 70 0 70 30 0 c73 0 130 47 130 107 0
81 -42 113 -150 113 l-70 0 0 -180z m134 114 c19 -18 21 -65 4 -82 -7 -7 -27
-12 -45 -12 -33 0 -33 0 -33 48 0 27 3 52 7 55 12 13 51 7 67 -9z"/>
<path d="M8217 5285 c-33 -34 -51 -111 -44 -191 10 -107 48 -154 122 -154 73
0 109 43 120 146 9 81 -9 165 -42 198 -21 21 -35 26 -78 26 -43 0 -57 -5 -78
-25z m121 -70 c19 -54 10 -180 -14 -206 -42 -46 -76 -5 -82 99 -6 102 14 155
55 150 23 -2 31 -11 41 -43z"/>
<path d="M8495 5285 c-19 -18 -25 -35 -25 -68 0 -51 17 -73 90 -113 33 -18 53
-36 57 -52 8 -34 -9 -57 -43 -57 -21 0 -32 7 -42 28 -10 20 -20 27 -43 27 -24
0 -29 -4 -29 -24 0 -42 39 -77 93 -83 58 -7 103 11 122 48 35 66 8 124 -76
169 -32 17 -61 40 -64 51 -15 47 57 70 75 24 7 -19 17 -25 40 -25 34 0 38 15
15 59 -17 35 -32 41 -96 41 -40 0 -55 -5 -74 -25z"/>
<path d="M8712 5283 c3 -24 8 -28 41 -31 l37 -3 0 -150 0 -149 35 0 35 0 0
150 0 150 40 0 c38 0 40 2 40 30 l0 30 -116 0 -115 0 3 -27z"/>
<path d="M9052 5283 c3 -24 8 -28 41 -31 l37 -3 0 -150 0 -149 35 0 35 0 0
150 0 150 40 0 c38 0 40 2 40 30 l0 30 -116 0 -115 0 3 -27z"/>
<path d="M9330 5131 l0 -181 30 0 30 0 0 75 0 75 35 0 c43 0 55 -20 55 -94 l0
-56 36 0 37 0 -6 66 c-4 37 -13 76 -21 88 -12 19 -11 24 5 45 27 34 25 93 -5
128 -23 26 -31 28 -110 32 l-86 3 0 -181z m134 116 c12 -9 17 -23 14 -47 -2
-26 -9 -35 -31 -43 -44 -14 -57 -3 -57 46 0 24 3 47 7 50 11 11 48 8 67 -6z"/>
<path d="M9631 5141 c-23 -93 -41 -174 -41 -180 0 -8 12 -11 32 -9 29 3 33 7
41 46 8 42 9 42 51 42 46 0 56 -12 56 -67 0 -20 5 -23 38 -23 l39 0 -38 158
c-21 86 -41 167 -44 180 -5 19 -12 22 -49 22 l-44 0 -41 -169z m108 -23 c1
-23 -3 -28 -23 -28 -14 0 -27 3 -29 8 -2 4 3 39 12 77 l15 70 12 -50 c7 -27
13 -62 13 -77z"/>
<path d="M9890 5130 l0 -180 30 0 30 0 1 138 1 137 18 -102 c33 -191 27 -175
63 -171 l32 3 27 140 26 140 1 -142 1 -143 33 0 32 0 -2 177 -2 178 -48 0 -48
0 -22 -105 c-12 -58 -24 -112 -26 -120 -2 -8 -9 17 -15 55 -7 39 -17 94 -23
123 l-10 52 -50 0 -49 0 0 -180z"/>
<path d="M10272 5138 c-23 -95 -42 -176 -42 -180 0 -5 15 -8 34 -8 32 0 34 2
40 45 l7 45 44 0 c47 0 48 -1 57 -65 2 -15 12 -21 41 -23 20 -2 37 -2 37 0 -1
2 -20 82 -44 178 l-44 175 -44 3 -44 3 -42 -173z m101 29 c8 -36 12 -69 9 -72
-13 -13 -52 -4 -52 12 0 22 23 133 27 130 1 -2 9 -33 16 -70z"/>
<path d="M10470 5280 c0 -28 2 -30 40 -30 l40 0 0 -150 0 -150 35 0 35 0 0
150 0 150 40 0 c38 0 40 2 40 30 l0 30 -115 0 -115 0 0 -30z"/>
<path d="M10740 5130 l0 -180 35 0 35 0 0 180 0 180 -35 0 -35 0 0 -180z"/>
<path d="M10918 5283 c-15 -16 -32 -50 -39 -76 -14 -59 -6 -174 15 -215 19
-37 65 -56 118 -49 47 6 74 29 87 75 9 31 9 32 -22 32 -25 0 -36 -7 -49 -30
-36 -63 -77 -24 -85 82 -7 97 11 152 50 156 24 3 30 -2 40 -27 9 -24 18 -31
38 -31 14 0 28 2 31 5 10 11 -5 55 -28 80 -19 21 -32 25 -77 25 -45 0 -57 -4
-79 -27z"/>
<path d="M11285 5285 c-19 -18 -25 -35 -25 -68 0 -50 25 -80 97 -116 67 -34
72 -106 7 -106 -21 0 -32 7 -42 28 -10 20 -20 27 -43 27 -24 0 -29 -4 -29 -24
0 -42 39 -77 93 -83 58 -7 103 11 122 48 35 67 10 123 -75 168 -57 31 -61 35
-58 64 2 27 8 33 30 35 22 3 30 -2 38 -22 7 -20 16 -26 40 -26 34 0 38 15 15
59 -17 35 -32 41 -96 41 -40 0 -55 -5 -74 -25z"/>
<path d="M11502 5283 c3 -25 7 -28 46 -31 l42 -3 0 -150 0 -149 30 0 30 0 0
150 0 150 40 0 c38 0 40 2 40 30 l0 30 -116 0 -115 0 3 -27z"/>
<path d="M11780 5131 l0 -181 33 0 32 0 0 72 0 73 30 3 c40 5 55 -19 55 -90
l0 -58 36 0 37 0 -6 71 c-3 41 -12 78 -21 88 -13 14 -12 19 5 40 27 33 25 93
-5 128 -23 26 -31 28 -110 32 l-86 3 0 -181z m131 119 c13 -8 19 -21 19 -46 0
-28 -5 -36 -27 -45 -42 -16 -57 -8 -61 34 -2 21 -1 45 2 53 6 16 39 18 67 4z"/>
<path d="M12060 5130 l0 -180 100 0 100 0 0 25 c0 24 -2 25 -65 25 l-65 0 0
55 0 55 60 0 c57 0 60 1 60 25 0 24 -3 25 -60 25 l-60 0 0 45 0 45 60 0 60 0
0 30 0 30 -95 0 -95 0 0 -180z"/>
<path d="M12335 5285 c-19 -18 -25 -35 -25 -68 0 -51 17 -73 90 -113 33 -18
53 -36 57 -52 8 -34 -9 -57 -43 -57 -21 0 -32 7 -42 28 -10 20 -20 27 -43 27
-24 0 -29 -4 -29 -24 0 -42 39 -77 93 -83 58 -7 103 11 122 48 35 66 4 129
-86 174 -26 14 -50 34 -54 45 -15 48 57 72 75 25 7 -19 17 -25 40 -25 34 0 38
15 15 59 -17 35 -32 41 -96 41 -40 0 -55 -5 -74 -25z"/>
<path d="M12605 5285 c-19 -18 -25 -35 -25 -68 0 -50 25 -80 97 -116 67 -34
72 -106 7 -106 -21 0 -32 7 -42 28 -10 20 -20 27 -43 27 -24 0 -29 -4 -29 -24
0 -42 39 -77 93 -83 58 -7 103 11 122 48 35 67 10 123 -75 168 -57 31 -61 35
-58 64 2 27 8 33 30 35 22 3 30 -2 38 -22 7 -20 16 -26 40 -26 34 0 38 15 15
59 -17 35 -32 41 -96 41 -40 0 -55 -5 -74 -25z"/>
<path d="M3030 4840 l0 -440 76 0 75 0 -3 375 c-2 207 0 368 4 358 3 -10 34
-175 68 -368 34 -192 64 -353 66 -357 3 -5 37 -8 75 -8 62 0 70 2 79 23 6 12
41 177 79 367 l69 345 1 -367 1 -368 80 0 80 0 0 440 0 440 -125 0 c-121 0
-125 -1 -130 -22 -22 -93 -115 -535 -115 -550 0 -10 -4 -18 -8 -18 -5 0 -14
35 -20 78 -7 42 -31 175 -54 295 l-42 217 -128 0 -128 0 0 -440z"/>
<path d="M3952 4843 l3 -438 245 0 244 0 7 35 c4 19 9 50 13 68 l6 32 -175 0
-175 0 0 125 0 124 153 3 152 3 3 68 3 67 -156 0 -155 0 0 110 0 110 165 0
165 0 0 65 0 65 -250 0 -250 0 2 -437z"/>
<path d="M4572 4843 l3 -438 75 0 75 0 0 317 c0 174 3 314 6 312 4 -2 9 -14
12 -26 4 -13 58 -153 121 -313 l115 -290 93 0 93 0 3 438 2 437 -81 0 -81 0 4
-302 c3 -217 1 -295 -7 -274 -5 16 -60 151 -121 300 l-111 271 -102 3 -101 3
2 -438z"/>
<path d="M5260 5215 l0 -64 103 -3 102 -3 3 -373 2 -373 83 3 82 3 3 373 2
372 105 0 105 0 0 65 0 65 -295 0 -295 0 0 -65z"/>
<path d="M6005 5268 c-2 -7 -38 -148 -80 -313 -42 -165 -90 -351 -106 -413
-16 -62 -29 -119 -29 -127 0 -12 16 -15 80 -15 93 0 83 -11 114 128 l21 97
104 3 c58 1 109 -2 114 -7 5 -5 19 -56 31 -113 l22 -103 84 -3 c46 -2 86 1 90
5 4 4 -43 202 -104 438 l-111 430 -113 3 c-84 2 -113 -1 -117 -10z m156 -328
c17 -85 34 -161 37 -167 3 -10 -17 -13 -78 -13 -80 0 -82 1 -78 23 39 196 74
344 80 330 3 -10 21 -88 39 -173z"/>
<path d="M6542 4843 l3 -438 239 0 240 0 7 28 c4 15 9 45 11 65 l3 37 -163 5
-163 5 1 368 0 367 -90 0 -90 0 2 -437z"/>
<path d="M2770 5166 l0 -76 -60 0 -60 0 0 70 0 70 -35 0 -35 0 0 -70 0 -70
-50 0 -50 0 0 70 0 70 -35 0 -35 0 0 -110 0 -110 215 0 216 0 -3 113 -3 112
-32 3 -33 3 0 -75z"/>
<path d="M8940 5085 c0 -24 3 -25 60 -25 57 0 60 1 60 25 0 24 -3 25 -60 25
-57 0 -60 -1 -60 -25z"/>
<path d="M7298 5045 c-47 -26 -58 -62 -58 -185 l0 -110 250 0 250 0 0 50 0 50
-105 0 -105 0 0 39 c0 56 19 71 89 71 32 0 73 3 90 6 29 6 31 9 31 52 l0 45
-52 -7 c-29 -3 -75 -6 -101 -6 -38 0 -53 -5 -73 -25 l-25 -25 -23 27 c-19 22
-33 27 -82 30 -40 2 -68 -2 -86 -12z m130 -91 c17 -12 22 -25 22 -60 l0 -44
-70 0 -70 0 0 40 c0 69 62 103 118 64z"/>
<path d="M2416 4933 c-3 -3 -6 -21 -6 -40 l0 -33 85 0 85 0 0 -55 0 -55 -85 0
-85 0 0 -40 0 -40 215 0 215 0 0 40 0 40 -95 0 -95 0 0 55 0 55 96 0 95 0 -3
38 -3 37 -206 2 c-114 1 -209 0 -213 -4z"/>
<path d="M7910 4576 l0 -196 83 0 c64 0 89 4 114 20 57 35 68 62 68 176 0 88
-3 106 -21 131 -31 41 -69 56 -161 61 l-83 5 0 -197z m161 115 c22 -18 24 -26
24 -115 0 -107 -11 -130 -73 -142 l-32 -6 0 141 0 141 29 0 c16 0 39 -9 52
-19z"/>
<path d="M8250 4575 l0 -195 115 0 115 0 0 30 0 30 -75 0 -75 0 0 55 0 55 70
0 70 0 0 30 0 30 -70 0 -70 0 0 50 0 50 76 0 75 0 -3 28 -3 27 -112 3 -113 3
0 -196z"/>
<path d="M8540 4575 l0 -195 40 0 40 0 0 80 0 80 55 0 c46 0 60 4 87 29 29 26
33 36 33 79 0 87 -53 122 -187 122 l-68 0 0 -195z m162 118 c41 -37 10 -103
-49 -103 l-33 0 0 60 0 60 32 0 c17 0 40 -7 50 -17z"/>
<path d="M8860 4575 l0 -195 35 0 35 0 0 80 0 80 39 0 c21 0 43 -6 49 -13 6
-7 12 -42 14 -77 l3 -65 39 -3 38 -3 -4 74 c-2 56 -8 81 -22 96 -19 21 -19 22
3 45 25 26 31 89 12 123 -17 32 -82 53 -166 53 l-75 0 0 -195z m167 109 c15
-24 15 -29 2 -53 -12 -21 -23 -27 -57 -29 l-42 -3 0 55 0 56 40 0 c32 0 43 -5
57 -26z"/>
<path d="M9180 4575 l0 -195 115 0 115 0 0 30 0 30 -75 0 -75 0 0 55 0 55 70
0 70 0 0 30 0 30 -70 0 -70 0 0 50 0 50 76 0 75 0 -3 28 -3 27 -112 3 -113 3
0 -196z"/>
<path d="M9518 4754 c-34 -18 -48 -43 -48 -87 0 -47 30 -82 101 -118 62 -31
82 -58 69 -94 -6 -15 -16 -20 -46 -20 -32 0 -41 5 -52 28 -11 22 -20 27 -48
27 -29 0 -34 -3 -34 -23 0 -74 107 -120 193 -83 49 20 70 50 70 97 0 56 -27
87 -106 126 -59 29 -67 36 -67 62 0 55 59 66 82 15 9 -18 19 -24 44 -24 18 0
35 4 38 8 9 15 -28 76 -54 89 -34 17 -109 16 -142 -3z"/>
<path d="M9813 4735 c-32 -32 -35 -40 -30 -76 7 -50 26 -72 86 -100 60 -28 91
-57 91 -84 0 -30 -19 -45 -57 -45 -26 0 -36 6 -48 30 -13 25 -22 30 -50 30
-40 0 -44 -13 -19 -61 18 -35 67 -59 119 -59 80 0 135 49 135 119 0 40 -46 92
-102 116 -58 25 -78 44 -78 71 0 49 74 56 86 8 5 -20 12 -24 45 -24 43 0 48
10 27 55 -16 36 -57 55 -119 55 -45 0 -55 -4 -86 -35z"/>
<path d="M10100 4575 l0 -195 40 0 40 0 0 195 0 195 -40 0 -40 0 0 -195z"/>
<path d="M10322 4758 c-42 -21 -65 -74 -70 -162 -7 -142 31 -213 120 -223 108
-12 158 49 158 197 0 141 -43 201 -142 199 -24 0 -53 -5 -66 -11z m115 -78
c18 -36 17 -184 -2 -220 -19 -36 -53 -40 -81 -9 -27 30 -33 182 -9 228 14 27
21 32 48 29 22 -2 35 -11 44 -28z"/>
<path d="M10600 4575 l0 -195 35 0 34 0 3 137 3 138 54 -138 54 -137 44 0 43
0 0 195 0 195 -35 0 -35 0 -1 -132 c0 -99 -3 -127 -10 -108 -6 14 -31 73 -56
133 l-45 107 -44 0 -44 0 0 -195z"/>
<path d="M7240 4545 l0 -155 40 0 40 0 0 55 0 55 210 0 210 0 0 45 0 45 -210
0 -210 0 0 55 0 55 -40 0 -40 0 0 -155z"/>
<path d="M2410 4500 l0 -130 35 0 c35 0 35 0 35 45 l0 45 180 0 180 0 0 40 0
40 -180 0 -180 0 0 45 c0 45 0 45 -35 45 l-35 0 0 -130z"/>
<path d="M1134 4190 c-31 -12 -64 -59 -64 -89 0 -41 27 -71 89 -98 31 -14 64
-32 74 -40 37 -34 11 -93 -42 -93 -28 0 -61 26 -61 48 0 7 -15 12 -36 12 -34
0 -36 -1 -29 -27 9 -40 36 -63 84 -74 89 -20 171 25 171 95 0 47 -32 83 -107
118 -67 32 -88 63 -62 94 19 23 72 14 84 -13 12 -28 75 -34 75 -7 0 61 -102
104 -176 74z"/>
<path d="M1725 4190 c-53 -21 -85 -91 -85 -185 0 -107 36 -167 108 -179 74
-11 152 32 152 85 0 15 -8 19 -35 19 -23 0 -35 -5 -35 -13 0 -8 -9 -22 -20
-32 -32 -29 -71 -10 -88 40 -18 52 -11 165 12 200 24 36 75 32 94 -7 10 -21
20 -28 43 -28 33 0 37 15 14 59 -22 43 -104 64 -160 41z"/>
<path d="M2354 4185 c-53 -27 -69 -67 -69 -175 0 -75 4 -102 18 -123 28 -42
64 -61 118 -60 96 1 133 52 133 183 0 89 -12 127 -53 164 -28 25 -107 31 -147
11z m113 -62 c22 -33 25 -163 4 -211 -26 -63 -92 -51 -112 21 -15 56 -8 157
14 191 24 36 70 36 94 -1z"/>
<path d="M2932 4185 c-52 -23 -75 -87 -70 -189 7 -127 42 -171 138 -169 96 1
132 53 132 189 0 85 -12 123 -51 158 -27 25 -106 31 -149 11z m101 -47 c40
-30 40 -210 0 -250 -31 -30 -70 -18 -90 29 -22 53 -15 183 11 212 21 24 54 27
79 9z"/>
<path d="M3275 4186 c-60 -27 -85 -81 -85 -185 0 -76 26 -143 62 -162 35 -19
104 -16 128 6 18 16 20 16 20 2 0 -12 9 -17 30 -17 l30 0 0 100 0 100 -71 0
c-67 0 -70 -1 -67 -22 2 -18 11 -24 36 -26 26 -3 32 -8 32 -27 0 -41 -18 -74
-44 -81 -60 -15 -92 45 -84 157 3 39 12 79 22 94 22 34 67 34 94 0 14 -17 30
-25 51 -25 31 0 31 0 18 33 -23 57 -105 83 -172 53z"/>
<path d="M3740 4182 c-55 -28 -74 -72 -74 -172 0 -132 38 -184 134 -184 59 0
97 24 117 72 l13 32 -35 0 c-28 0 -37 -5 -45 -24 -17 -47 -80 -46 -98 2 -28
73 -20 204 15 230 30 22 63 14 81 -18 13 -24 24 -30 50 -30 37 0 37 -1 17 46
-24 59 -107 81 -175 46z"/>
<path d="M780 4010 l0 -180 30 0 30 0 0 75 0 75 45 0 c68 0 113 23 131 66 20
47 11 87 -28 119 -27 23 -38 25 -119 25 l-89 0 0 -180z m144 130 c33 -12 43
-52 22 -85 -14 -20 -25 -25 -61 -25 l-45 0 0 53 c0 30 3 57 7 60 9 10 48 9 77
-3z"/>
<path d="M1340 4185 c0 -3 25 -55 55 -115 50 -99 55 -116 55 -175 l0 -65 35 0
35 0 0 70 c0 65 4 78 55 180 l55 110 -35 0 c-35 0 -37 -2 -73 -81 l-37 -81
-37 81 c-36 79 -37 81 -72 81 -20 0 -36 -2 -36 -5z"/>
<path d="M1960 4010 l0 -180 35 0 35 0 0 85 0 86 58 -3 57 -3 3 -82 3 -83 29
0 30 0 0 180 0 180 -30 0 -30 0 0 -70 0 -70 -60 0 -60 0 0 70 0 70 -35 0 -35
0 0 -180z"/>
<path d="M2620 4010 l0 -180 110 0 110 0 0 25 c0 24 -2 25 -75 25 l-75 0 0
155 0 155 -35 0 -35 0 0 -180z"/>
<path d="M3530 4010 l0 -180 35 0 35 0 0 180 0 180 -35 0 -35 0 0 -180z"/>
<path d="M4057 4183 c-7 -12 -97 -331 -97 -343 0 -7 14 -10 32 -8 29 3 33 7
43 48 l11 45 57 3 c42 2 57 -1 57 -10 0 -7 5 -30 11 -50 9 -35 13 -38 44 -38
19 0 35 2 35 5 0 3 -22 82 -50 175 -27 93 -50 172 -50 175 0 8 -88 6 -93 -2z
m79 -200 c-2 -2 -20 -3 -39 -1 l-34 3 14 60 c22 94 24 94 44 16 11 -40 18 -75
15 -78z"/>
<path d="M4290 4010 l0 -180 110 0 110 0 0 25 c0 24 -2 25 -75 25 l-75 0 0
155 0 155 -35 0 -35 0 0 -180z"/>
<path d="M4660 3755 l0 -435 85 0 85 0 2 193 3 192 118 3 117 3 0 -196 0 -195
85 0 85 0 0 435 0 435 -85 0 -85 0 0 -170 0 -170 -120 0 -120 0 0 170 0 170
-85 0 -85 0 0 -435z"/>
<path d="M5410 3755 l0 -435 249 0 249 0 6 48 c4 26 9 55 12 65 5 16 -8 17
-170 17 l-176 0 0 130 0 130 155 0 155 0 0 65 0 65 -155 0 -155 0 0 110 0 110
165 0 165 0 0 65 0 65 -250 0 -250 0 0 -435z"/>
<path d="M6215 4178 c-9 -26 -215 -837 -215 -847 0 -7 31 -11 84 -11 l84 0 17
78 c9 42 20 91 24 107 l7 30 111 3 111 3 16 -73 c9 -40 19 -90 23 -110 l6 -38
92 0 92 0 -14 53 c-71 271 -197 768 -201 790 l-4 27 -114 0 c-83 0 -116 -3
-119 -12z m153 -322 c21 -97 36 -178 34 -181 -8 -8 -152 -6 -152 3 -1 14 74
361 77 358 2 -1 20 -82 41 -180z"/>
<path d="M6750 3755 l0 -435 244 0 244 0 6 31 c3 17 6 47 6 65 l0 34 -162 2
-163 3 0 367 0 368 -87 0 -88 0 0 -435z"/>
<path d="M7150 4125 l0 -65 105 0 105 0 0 -370 0 -370 85 0 85 0 0 370 0 370
105 0 105 0 0 65 0 65 -295 0 -295 0 0 -65z"/>
<path d="M7830 3755 l0 -435 90 0 90 0 0 195 0 195 115 0 115 0 0 -194 0 -195
85 -3 85 -3 0 438 0 437 -85 0 -85 0 0 -170 0 -170 -115 0 -115 0 0 170 0 170
-90 0 -90 0 0 -435z"/>
<path d="M9020 4115 l0 -75 -60 0 -60 0 0 70 0 70 -30 0 -30 0 0 -70 0 -70
-50 0 -50 0 0 70 0 70 -30 0 -30 0 0 -105 0 -105 200 0 200 0 0 110 0 110 -30
0 -30 0 0 -75z"/>
<path d="M9280 4030 l0 -150 75 0 c68 0 75 2 75 20 0 17 -7 20 -50 20 l-50 0
0 45 0 45 45 0 c38 0 45 3 45 20 0 17 -7 20 -45 20 l-45 0 0 45 0 45 50 0 c43
0 50 3 50 20 0 18 -7 20 -75 20 l-75 0 0 -150z"/>
<path d="M9470 4030 c0 -143 1 -150 20 -150 18 0 20 8 22 118 l3 117 20 -115
c18 -103 23 -115 42 -118 25 -4 22 -10 52 133 l19 90 1 -112 1 -113 25 0 26 0
-3 148 -3 147 -32 3 c-36 4 -34 7 -62 -123 -20 -97 -22 -96 -41 10 -21 120
-18 115 -56 115 l-34 0 0 -150z"/>
<path d="M9775 4154 c-39 -42 -46 -166 -15 -236 24 -52 87 -62 130 -20 51 51
53 209 5 258 -34 34 -88 33 -120 -2z m89 -36 c18 -26 22 -131 6 -173 -14 -37
-39 -43 -62 -16 -21 27 -26 144 -6 186 14 31 42 32 62 3z"/>
<path d="M9940 4161 c0 -15 8 -21 33 -23 l32 -3 3 -127 c2 -119 4 -128 22
-128 18 0 20 9 22 128 l3 127 33 3 c24 2 32 8 32 23 0 17 -8 19 -90 19 -82 0
-90 -2 -90 -19z"/>
<path d="M10150 4031 l0 -151 25 0 26 0 -3 148 c-3 144 -3 147 -25 150 -23 3
-23 3 -23 -147z"/>
<path d="M10275 4154 c-39 -42 -46 -166 -15 -236 24 -52 87 -62 130 -20 51 51
53 209 5 258 -34 34 -88 33 -120 -2z m89 -36 c18 -26 22 -131 6 -173 -14 -37
-39 -43 -62 -16 -21 27 -26 144 -6 186 14 31 42 32 62 3z"/>
<path d="M10477 4173 c-4 -3 -7 -71 -7 -150 l0 -143 26 0 25 0 -7 113 c-4 61
-4 110 -1 107 3 -3 23 -52 45 -110 35 -94 42 -105 65 -108 l27 -3 0 150 c0
144 -1 151 -20 151 -19 0 -20 -7 -21 -107 l0 -108 -41 108 c-35 91 -45 107
-63 107 -12 0 -25 -3 -28 -7z"/>
<path d="M10726 4159 c-18 -14 -26 -30 -26 -50 0 -44 15 -65 65 -95 49 -28 66
-64 44 -90 -17 -21 -52 -14 -64 14 -6 13 -18 22 -32 22 -26 0 -28 -8 -12 -43
21 -47 89 -61 132 -27 56 44 39 123 -33 160 -43 22 -63 50 -54 74 9 24 55 20
61 -4 3 -13 14 -20 29 -20 30 0 31 19 3 54 -26 33 -75 35 -113 5z"/>
<path d="M8797 3901 c-45 -10 -87 -38 -104 -72 -7 -13 -13 -59 -13 -101 l0
-78 200 0 200 0 0 78 c0 128 -39 167 -177 176 -37 3 -85 1 -106 -3z m196 -94
c22 -14 41 -69 29 -82 -3 -3 -68 -5 -144 -5 l-139 0 3 38 c2 31 9 40 38 55 44
23 175 19 213 -6z"/>
<path d="M9270 3460 l0 -240 71 0 c99 0 135 19 167 88 21 46 25 69 25 157 0
85 -3 109 -22 148 -30 61 -81 87 -174 87 l-67 0 0 -240z m163 170 c33 -26 47
-76 47 -165 -1 -140 -31 -193 -114 -202 l-46 -6 0 197 0 196 44 0 c28 0 52 -7
69 -20z"/>
<path d="M9610 3460 l0 -240 30 0 30 0 0 110 0 110 45 0 c67 0 85 -23 85 -107
0 -94 7 -113 38 -113 l25 0 -5 91 c-5 73 -10 97 -28 121 l-22 30 23 24 c16 17
23 39 26 76 7 100 -39 138 -169 138 l-78 0 0 -240z m166 182 c16 -10 34 -48
34 -71 0 -56 -41 -91 -105 -91 l-35 0 0 85 0 85 48 0 c26 0 52 -4 58 -8z"/>
<path d="M9937 3693 c-10 -9 -8 -330 2 -382 5 -25 20 -54 35 -70 23 -23 35
-26 90 -26 54 0 68 4 90 24 39 37 46 79 46 279 l0 182 -24 0 -24 0 -4 -193
c-4 -225 -10 -247 -76 -247 -76 0 -82 18 -82 249 l0 191 -23 0 c-13 0 -27 -3
-30 -7z"/>
<path d="M10352 3686 c-36 -19 -59 -63 -73 -134 -22 -120 5 -280 54 -321 10
-7 36 -16 60 -18 36 -4 48 -1 75 22 31 26 32 26 32 6 0 -14 6 -21 20 -21 19 0
20 7 20 130 l0 130 -65 0 c-63 0 -65 -1 -65 -25 0 -23 4 -25 41 -25 l42 0 -6
-65 c-6 -81 -25 -107 -75 -103 -25 2 -41 11 -56 31 -19 26 -21 42 -21 162 0
120 2 136 21 162 44 59 117 49 131 -17 4 -24 11 -30 31 -30 23 0 24 3 19 38
-9 56 -54 92 -115 92 -26 -1 -57 -6 -70 -14z"/>
<path d="M10671 3686 c-34 -19 -50 -54 -51 -107 0 -58 24 -90 92 -125 74 -37
98 -65 98 -112 0 -51 -25 -83 -66 -84 -43 -1 -74 19 -81 53 -5 24 -10 29 -34
29 -27 0 -29 -2 -23 -27 11 -45 23 -63 57 -83 40 -25 91 -25 137 -2 44 22 60
53 60 119 0 45 -5 58 -32 88 -17 20 -53 47 -79 60 -55 28 -79 58 -79 97 0 78
103 92 128 18 10 -28 38 -40 54 -24 12 11 -12 69 -37 92 -30 26 -104 30 -144
8z"/>
<path d="M2730 3667 c-39 -19 -61 -76 -63 -159 -4 -144 27 -198 114 -198 39 0
54 5 78 28 16 15 32 39 35 55 6 25 4 27 -28 27 -28 0 -35 -5 -40 -24 -8 -31
-43 -44 -63 -23 -37 37 -40 194 -4 238 22 27 58 18 67 -17 5 -19 12 -24 40
-24 38 0 41 8 19 55 -25 51 -97 71 -155 42z"/>
<path d="M2940 3495 l0 -185 94 0 c76 0 95 3 100 16 15 39 8 44 -59 44 l-65 0
0 155 0 155 -35 0 -35 0 0 -185z"/>
<path d="M3174 3667 c-2 -7 -3 -89 -2 -182 l3 -170 33 -3 32 -3 0 185 0 186
-30 0 c-17 0 -33 -6 -36 -13z"/>
<path d="M3310 3496 l0 -186 30 0 29 0 3 128 3 127 46 -125 46 -125 37 -3 36
-3 0 185 0 186 -30 0 -30 0 0 -117 -1 -118 -47 115 -47 115 -37 3 -38 3 0
-185z"/>
<path d="M3610 3496 l0 -186 35 0 35 0 -2 183 -3 182 -32 3 -33 3 0 -185z"/>
<path d="M3792 3664 c-43 -30 -57 -72 -57 -174 0 -139 27 -180 117 -180 52 0
85 21 104 66 19 44 19 44 -18 44 -26 0 -37 -6 -50 -30 -32 -56 -73 -30 -83 54
-9 73 2 150 25 171 24 22 58 11 66 -21 5 -19 12 -24 40 -24 19 0 34 2 34 5 0
20 -32 75 -51 89 -30 20 -98 21 -127 0z"/>
<path d="M4075 3668 c-5 -15 -85 -347 -85 -354 0 -3 15 -4 33 -2 29 3 33 7 41
46 l10 42 47 0 47 0 6 -45 c7 -43 9 -45 42 -45 21 0 34 5 34 13 0 6 -20 89
-43 182 l-43 170 -42 3 c-28 2 -44 -1 -47 -10z m59 -120 c4 -24 9 -53 13 -65
5 -20 1 -23 -27 -23 -31 0 -32 1 -25 33 3 17 9 49 12 69 7 47 18 41 27 -14z"/>
<path d="M4290 3495 l0 -185 95 0 95 0 0 30 0 30 -65 0 -65 0 0 155 0 155 -30
0 -30 0 0 -185z"/>
<path d="M2227 3590 c-136 -33 -252 -62 -257 -65 -10 -6 -14 -125 -4 -125 3 0
121 -27 263 -60 142 -33 264 -60 270 -60 8 0 11 16 9 47 l-3 47 -45 9 c-99 17
-91 11 -88 80 l3 62 68 14 67 14 0 49 c0 39 -3 48 -17 47 -10 0 -129 -27 -266
-59z m63 -125 c0 -25 -3 -45 -7 -45 -12 0 -164 29 -193 36 -19 5 1 13 80 29
58 13 108 23 113 24 4 1 7 -19 7 -44z"/>
<path d="M8680 3540 l0 -40 159 0 c173 0 191 -5 191 -55 0 -47 -30 -55 -197
-55 l-153 0 0 -35 0 -35 165 0 c181 0 211 7 233 55 18 40 15 115 -8 152 -26
44 -67 53 -242 53 l-148 0 0 -40z"/>
<path d="M8680 3150 l0 -130 30 0 c29 0 30 2 30 45 l0 45 170 0 170 0 0 40 0
40 -170 0 -170 0 0 45 c0 43 -1 45 -30 45 l-30 0 0 -130z"/>
<path d="M1962 3173 l3 -48 270 0 270 0 3 48 3 47 -276 0 -276 0 3 -47z"/>
<path d="M3669 3171 c-49 -16 -69 -32 -91 -74 -20 -36 -23 -57 -23 -152 0
-123 16 -171 68 -209 39 -29 135 -29 174 0 52 39 68 87 68 209 0 95 -3 116
-23 152 -12 24 -32 49 -45 57 -28 19 -94 28 -128 17z m80 -80 c34 -34 41 -224
11 -280 -22 -42 -79 -38 -100 7 -16 35 -25 146 -16 207 12 76 63 108 105 66z"/>
<path d="M2680 2946 l0 -226 84 0 c46 0 98 3 115 6 42 9 89 56 97 99 8 44 -12
102 -41 121 l-23 15 24 24 c36 36 34 104 -5 147 l-29 33 -111 3 -111 4 0 -226z
m187 138 c33 -45 2 -94 -59 -94 l-38 0 0 61 0 62 42 -6 c23 -3 48 -14 55 -23z
m-3 -175 c18 -14 26 -30 26 -53 0 -48 -19 -67 -73 -73 l-47 -6 0 77 0 76 34 0
c19 0 45 -9 60 -21z"/>
<path d="M3040 2945 l0 -225 45 0 45 0 0 225 0 225 -45 0 -45 0 0 -225z"/>
<path d="M3210 2945 l0 -225 45 0 45 0 0 90 0 90 38 0 c105 0 162 47 162 134
0 39 -6 61 -21 80 -35 45 -69 56 -174 56 l-95 0 0 -225z m188 143 c6 -6 12
-30 12 -54 0 -50 -17 -64 -74 -64 l-36 0 0 63 c0 35 3 67 7 71 10 9 74 -2 91
-16z"/>
<path d="M3940 2945 l0 -225 125 0 125 0 0 35 0 35 -80 0 -80 0 0 190 0 190
-45 0 -45 0 0 -225z"/>
<path d="M4335 3158 c-9 -25 -105 -417 -105 -428 0 -7 17 -10 43 -8 l42 3 9
53 9 52 58 0 58 0 10 -37 c6 -21 11 -46 11 -55 0 -15 9 -18 49 -18 l48 0 -57
223 -57 222 -57 3 c-39 2 -58 -1 -61 -10z m95 -240 c0 -14 -8 -18 -33 -18 -19
0 -36 2 -39 5 -3 3 1 34 9 68 26 120 24 119 44 37 10 -41 18 -83 19 -92z"/>
<path d="M4610 2945 l0 -225 45 0 45 0 0 95 0 95 39 0 c23 0 44 -6 51 -16 8
-8 15 -51 18 -95 l5 -79 42 0 42 0 -4 73 c-6 97 -10 113 -35 137 -12 11 -16
20 -10 20 19 0 52 62 52 98 0 89 -53 122 -194 122 l-96 0 0 -225z m187 143
c18 -15 16 -73 -3 -92 -9 -9 -32 -16 -55 -16 l-39 0 0 66 0 67 42 -7 c23 -4
48 -12 55 -18z"/>
<path d="M5812 3109 l3 -42 87 -31 c89 -32 114 -46 84 -46 -9 0 -53 -14 -96
-31 l-80 -30 0 -45 c0 -24 1 -44 3 -44 2 0 60 24 129 54 116 50 133 55 214 58
l89 3 3 43 3 42 -86 0 c-82 0 -92 2 -213 55 -70 30 -131 55 -135 55 -5 0 -7
-19 -5 -41z"/>
<path d="M6420 2900 l0 -250 30 0 30 0 0 104 0 103 71 7 c124 11 173 57 166
154 -7 96 -69 132 -227 132 l-70 0 0 -250z m213 172 c17 -17 22 -33 21 -68 -1
-66 -26 -87 -109 -92 l-65 -4 0 97 0 97 65 -4 c51 -3 70 -9 88 -26z"/>
<path d="M6800 2900 l0 -250 30 0 30 0 0 120 0 121 93 -3 92 -3 3 -117 3 -118
29 0 30 0 -2 248 -3 247 -27 3 -28 3 0 -105 0 -106 -95 0 -95 0 0 105 0 105
-30 0 -30 0 0 -250z"/>
<path d="M7305 3140 c-127 -52 -142 -387 -22 -474 21 -15 44 -21 87 -21 73 0
105 21 140 91 22 44 25 61 25 164 0 135 -20 195 -77 230 -35 21 -114 26 -153
10z m146 -94 c22 -49 26 -214 7 -278 -33 -110 -148 -101 -178 13 -19 68 -9
236 15 277 39 65 124 59 156 -12z"/>
<path d="M7637 3143 c-4 -3 -7 -116 -7 -251 l0 -244 108 4 c101 3 111 5 145
31 42 32 63 87 53 140 -7 35 -40 80 -67 89 -10 3 -6 12 16 30 27 23 30 33 30
81 0 70 -26 101 -97 116 -55 12 -171 15 -181 4z m200 -66 c11 -11 18 -33 18
-58 0 -58 -29 -79 -106 -79 l-59 0 0 81 0 81 65 -4 c44 -3 71 -10 82 -21z m9
-212 c21 -21 25 -33 22 -77 -4 -68 -32 -90 -115 -92 l-58 -1 -3 98 -3 97 66 0
c57 0 69 -3 91 -25z"/>
<path d="M8020 2900 l0 -250 30 0 30 0 0 250 0 250 -30 0 -30 0 0 -250z"/>
<path d="M8285 3138 c-2 -7 -32 -112 -65 -233 -34 -121 -64 -228 -66 -237 -4
-14 1 -18 25 -18 29 0 31 4 46 58 30 108 25 103 107 100 l72 -3 19 -77 19 -78
35 0 c28 0 33 3 29 18 -3 9 -33 114 -67 232 -34 118 -66 223 -71 233 -10 20
-76 24 -83 5z m75 -172 l28 -106 -59 0 c-32 0 -59 2 -59 5 0 17 53 215 57 212
2 -3 17 -52 33 -111z"/>
<path d="M5082 2990 l3 -151 275 0 275 0 3 51 3 50 -120 0 -121 0 0 95 0 95
-45 0 -45 0 0 -95 0 -95 -70 0 -70 0 0 100 0 100 -45 0 -46 0 3 -150z"/>
<path d="M9240 3000 l0 -100 25 0 c22 0 25 4 25 35 l0 35 135 0 135 0 0 30 0
30 -135 0 -135 0 0 35 c0 31 -3 35 -25 35 l-25 0 0 -100z"/>
<path d="M9744 3071 c-55 -34 -83 -155 -64 -276 16 -103 48 -135 130 -135 47
0 96 37 108 83 11 41 7 47 -28 47 -24 0 -32 -6 -44 -35 -23 -54 -69 -46 -86
16 -13 46 -13 168 1 208 20 58 75 64 86 10 5 -26 10 -29 45 -29 43 0 43 2 17
71 -21 55 -106 76 -165 40z"/>
<path d="M10038 3074 c-49 -26 -71 -86 -72 -194 0 -52 6 -112 13 -132 36 -108
178 -121 227 -21 26 53 27 243 2 290 -38 68 -107 92 -170 57z m78 -52 c25 -16
34 -56 34 -149 0 -106 -12 -146 -46 -151 -11 -2 -29 7 -40 19 -16 18 -19 36
-19 136 0 109 1 116 24 134 26 21 31 22 47 11z"/>
<path d="M10365 3081 c-57 -25 -85 -93 -85 -208 0 -154 31 -213 113 -213 27 0
49 6 57 15 7 8 16 15 21 15 5 0 9 -7 9 -15 0 -9 9 -15 25 -15 l25 0 0 120 0
120 -60 0 -60 0 0 -30 c0 -25 4 -30 25 -30 22 0 25 -4 25 -38 0 -69 -47 -104
-84 -63 -41 45 -29 258 16 282 23 12 68 -12 68 -36 0 -11 11 -15 36 -15 36 0
36 1 30 33 -10 48 -46 78 -97 83 -24 2 -53 0 -64 -5z"/>
<path d="M10600 2871 l0 -211 30 0 30 0 1 153 0 152 53 -150 53 -150 39 0 39
0 3 208 2 207 -36 0 -36 0 4 -135 c2 -74 0 -131 -3 -127 -4 4 -27 63 -52 132
l-45 125 -41 3 -41 3 0 -210z"/>
<path d="M10920 2870 l0 -210 35 0 35 0 0 210 0 210 -35 0 -35 0 0 -210z"/>
<path d="M11030 3050 c0 -29 2 -30 45 -30 l45 0 0 -180 0 -180 35 0 35 0 2
178 3 177 43 3 c39 3 42 5 42 33 l0 29 -125 0 -125 0 0 -30z"/>
<path d="M11322 2873 l3 -208 33 -3 32 -3 0 210 0 211 -35 0 -35 0 2 -207z"/>
<path d="M11478 2893 c58 -243 54 -233 97 -233 27 0 38 5 45 23 8 17 56 209
95 375 5 20 2 22 -33 22 l-39 0 -22 -112 c-12 -62 -27 -135 -33 -163 l-11 -50
-28 143 c-38 192 -33 182 -78 182 l-38 0 45 -187z"/>
<path d="M11760 2870 l0 -210 100 0 c104 0 105 1 112 45 3 18 -3 20 -69 23
l-73 3 0 59 0 60 65 0 65 0 0 35 0 35 -65 0 -65 0 0 50 0 50 70 0 70 0 0 30 0
30 -105 0 -105 0 0 -210z"/>
<path d="M2045 3036 c-64 -28 -84 -82 -85 -223 l0 -83 275 0 275 0 0 45 0 45
-115 0 -115 0 0 43 c0 23 4 48 9 56 11 17 78 30 159 31 l62 0 0 48 0 49 -82
-4 c-117 -5 -141 -10 -167 -34 -22 -21 -22 -21 -44 -1 -49 44 -112 54 -172 28z
m129 -102 c19 -19 29 -53 24 -85 -3 -23 -7 -24 -78 -24 -71 0 -75 1 -78 24 -9
61 22 101 78 101 22 0 45 -7 54 -16z"/>
<path d="M8680 2940 l0 -40 200 0 200 0 0 40 0 40 -200 0 -200 0 0 -40z"/>
<path d="M9240 2840 l0 -30 108 -1 107 0 -107 -41 c-108 -40 -108 -40 -108
-74 l0 -34 160 0 160 0 0 25 c0 24 0 24 -111 27 l-110 3 108 40 108 40 3 38 3
37 -160 0 -161 0 0 -30z"/>
<path d="M8680 2729 l0 -130 28 3 c24 3 28 8 32 48 l5 45 168 3 167 2 0 35 0
35 -170 0 -170 0 0 45 c0 43 -1 45 -30 45 l-30 0 0 -131z"/>
<path d="M5810 2669 l0 -140 32 3 c32 3 32 4 29 51 l-3 47 191 0 191 0 0 40 0
40 -187 2 -188 3 0 48 c0 46 0 47 -32 47 l-33 0 0 -141z"/>
<path d="M5550 2661 l0 -111 -80 0 -80 0 0 101 0 100 -42 -3 -43 -3 -3 -97 -3
-98 -64 0 -64 0 -3 103 -3 102 -42 3 -43 3 0 -155 0 -156 280 0 280 0 0 155
c0 125 -3 155 -14 155 -7 0 -28 3 -45 6 l-31 7 0 -112z"/>
<path d="M2081 2631 c-29 -10 -67 -33 -85 -50 -29 -30 -31 -36 -31 -105 0 -66
3 -78 25 -101 55 -60 92 -70 245 -70 129 0 144 2 189 25 72 36 91 67 91 145 0
78 -20 109 -90 145 -43 21 -66 25 -170 27 -98 3 -130 0 -174 -16z m285 -92
c76 -19 95 -78 37 -116 -33 -22 -243 -31 -297 -13 -59 19 -82 59 -57 98 24 38
215 56 317 31z"/>
<path d="M9510 2560 l0 -60 -45 0 -45 0 0 55 c0 52 -1 55 -25 55 -24 0 -25 -3
-25 -55 l0 -55 -40 0 -40 0 0 55 c0 52 -1 55 -25 55 -25 0 -25 -1 -25 -85 l0
-85 159 0 160 0 3 85 c3 86 0 95 -38 95 -10 0 -14 -15 -14 -60z"/>
<path d="M8680 2450 l0 -130 30 0 c29 0 30 2 30 45 l0 45 168 0 c93 0 171 2
173 5 3 2 3 20 1 40 l-4 35 -169 0 -169 0 0 45 c0 43 -1 45 -30 45 l-30 0 0
-130z"/>
<path d="M2690 2536 c0 -22 12 -32 88 -70 l87 -44 -87 -40 c-77 -36 -88 -44
-88 -66 0 -14 3 -26 7 -26 3 0 53 25 109 55 97 52 108 55 174 55 68 0 70 1 70
25 0 24 -2 25 -76 25 -73 0 -80 2 -180 56 -104 55 -104 56 -104 30z"/>
<path d="M3263 2549 c-45 -13 -73 -53 -73 -104 0 -51 26 -82 98 -119 75 -38
95 -90 47 -122 -23 -15 -27 -15 -49 0 -14 8 -27 25 -31 36 -5 15 -15 20 -41
20 -30 0 -34 -3 -34 -26 0 -16 13 -39 35 -61 34 -34 37 -35 100 -31 55 3 70 8
93 31 23 23 27 36 27 81 0 66 -19 90 -101 130 -55 27 -75 54 -66 88 5 20 44
34 62 23 6 -4 15 -18 20 -31 8 -19 17 -24 45 -24 41 0 46 18 15 67 -13 21 -31
35 -57 42 -44 12 -47 12 -90 0z"/>
<path d="M4423 2553 c-30 -6 -70 -48 -76 -79 -12 -65 34 -127 122 -163 36 -16
57 -60 42 -89 -23 -44 -85 -35 -97 13 -5 20 -12 25 -39 25 -43 0 -49 -11 -31
-54 18 -43 60 -66 121 -66 85 0 124 37 125 116 0 60 -21 89 -91 124 -59 30
-79 49 -79 75 0 52 74 59 86 9 6 -22 11 -25 43 -22 30 2 35 7 33 23 -4 31 -21
60 -42 73 -22 14 -86 22 -117 15z"/>
<path d="M4725 2553 c-57 -16 -93 -73 -79 -129 9 -40 30 -61 92 -97 66 -37 86
-65 73 -100 -19 -48 -84 -43 -97 8 -5 21 -12 25 -46 25 -39 0 -40 -1 -33 -27
16 -68 52 -93 131 -93 85 0 124 39 124 124 0 51 -25 83 -91 116 -59 30 -79 49
-79 75 0 51 74 59 86 10 5 -21 12 -25 40 -25 30 0 34 3 34 25 0 39 -48 84 -95
89 -22 3 -49 2 -60 -1z"/>
<path d="M3460 2520 c0 -29 2 -30 45 -30 l45 0 2 -172 3 -173 35 0 35 0 3 173
2 172 45 0 c43 0 45 1 45 30 l0 30 -130 0 -130 0 0 -30z"/>
<path d="M3762 2348 l3 -203 35 0 35 0 3 88 c3 83 4 87 25 87 12 0 33 -7 45
-16 18 -13 22 -25 22 -74 0 -79 5 -90 46 -90 l34 0 0 65 c0 68 -20 135 -41
135 -6 0 0 12 15 26 20 21 26 36 26 71 0 88 -36 113 -165 113 l-85 0 2 -202z
m162 126 c9 -8 16 -26 16 -39 0 -33 -26 -55 -66 -55 l-34 0 0 55 0 55 34 0
c19 0 42 -7 50 -16z"/>
<path d="M4072 2348 l3 -203 106 -3 c104 -3 107 -2 113 20 12 46 10 48 -69 48
l-75 0 0 61 0 60 67 -2 67 -2 0 29 c0 29 0 29 -67 32 l-67 3 0 49 0 50 70 0
70 0 0 30 0 30 -110 0 -110 0 2 -202z"/>
<path d="M6180 2424 l0 -84 -65 0 -65 0 0 75 0 75 -35 0 -35 0 0 -76 0 -75
-52 3 -53 3 -1 75 -1 75 -32 3 -31 3 0 -120 0 -121 220 0 221 0 -3 117 -3 117
-32 7 -33 6 0 -83z"/>
<path d="M6533 2499 c-39 -11 -79 -58 -93 -107 -13 -49 -13 -197 1 -246 6 -22
24 -52 39 -68 23 -23 37 -28 77 -28 27 0 58 7 70 15 19 13 22 13 27 0 3 -9 18
-15 36 -15 l30 0 0 125 0 125 -75 0 -75 0 0 -29 c0 -26 4 -30 33 -33 31 -3 32
-4 30 -47 -3 -55 -30 -87 -65 -78 -44 11 -65 99 -53 213 8 81 37 121 79 110
15 -4 31 -17 36 -31 8 -21 16 -25 50 -25 39 0 40 1 34 28 -8 36 -30 69 -53 81
-29 16 -93 21 -128 10z"/>
<path d="M8326 2500 c-76 -23 -111 -107 -104 -254 7 -146 43 -196 143 -196 76
0 116 31 139 108 7 21 4 22 -38 22 -38 0 -46 -3 -46 -18 0 -22 -30 -52 -52
-52 -8 0 -23 9 -34 21 -17 18 -19 37 -19 145 0 113 2 125 22 145 30 30 71 19
80 -21 5 -28 9 -30 49 -30 43 0 44 1 38 28 -12 49 -37 81 -76 97 -42 17 -59
17 -102 5z"/>
<path d="M6790 2275 l0 -225 119 0 c115 0 119 1 125 23 12 46 10 47 -79 47
l-85 0 0 65 0 65 75 0 75 0 0 35 0 35 -75 0 -75 0 0 55 0 55 80 0 80 0 0 35 0
35 -120 0 -120 0 0 -225z"/>
<path d="M7092 2278 l3 -223 38 -3 37 -3 0 158 1 158 58 -155 58 -155 47 -3
46 -3 0 225 0 226 -41 0 -42 0 7 -152 c4 -84 5 -151 2 -148 -4 5 -36 86 -98
248 l-19 52 -50 0 -49 0 2 -222z"/>
<path d="M7460 2275 l0 -225 119 0 c115 0 119 1 125 23 12 46 10 47 -79 47
l-85 0 0 65 0 65 75 0 75 0 0 35 0 35 -75 0 -75 0 0 55 0 55 80 0 80 0 0 35 0
35 -120 0 -120 0 0 -225z"/>
<path d="M7740 2465 l0 -35 50 0 50 0 0 -190 0 -190 40 0 40 0 0 190 0 190 50
0 50 0 0 35 0 35 -140 0 -140 0 0 -35z"/>
<path d="M8070 2275 l0 -225 40 0 40 0 0 225 0 225 -40 0 -40 0 0 -225z"/>
<path d="M9240 2336 l0 -43 102 -22 c56 -12 103 -23 105 -25 2 -1 -44 -11
-102 -21 l-105 -18 0 -43 0 -44 160 0 160 0 0 25 0 25 -122 1 -123 1 123 21
c122 21 122 21 122 49 0 31 6 28 -140 57 l-95 19 118 1 117 1 0 30 0 30 -160
0 -160 0 0 -44z"/>
<path d="M8875 2301 l-190 -47 -3 -51 -3 -51 193 -46 c106 -25 196 -46 201
-46 4 0 7 16 7 35 0 31 -3 35 -37 44 -21 6 -44 11 -50 11 -9 0 -13 16 -13 49
l0 49 50 12 c49 12 50 12 50 51 0 21 -3 38 -7 38 -5 -1 -93 -22 -198 -48z m45
-101 c0 -20 -5 -30 -15 -30 -18 0 -115 19 -135 27 -16 6 75 29 123 32 24 1 27
-3 27 -29z"/>
<path d="M5080 2290 l0 -50 280 0 280 0 0 50 0 50 -280 0 -280 0 0 -50z"/>
<path d="M2360 2219 c-69 -32 -130 -59 -137 -59 -7 0 -63 25 -124 55 -61 30
-118 55 -126 55 -11 0 -13 -11 -11 -47 l3 -47 90 -37 90 -38 -38 -16 c-21 -8
-62 -26 -92 -40 l-55 -24 0 -50 c0 -28 4 -51 8 -51 5 0 66 27 135 60 l126 60
43 -19 c24 -11 87 -40 141 -65 l98 -46 -3 52 -3 52 -86 35 c-47 20 -86 41 -86
46 -1 6 39 26 88 45 l89 35 0 53 c0 35 -4 52 -12 51 -7 0 -69 -27 -138 -60z"/>
<path d="M2719 2231 c-28 -28 -29 -34 -29 -115 l0 -86 180 0 180 0 0 25 c0 25
-1 25 -80 25 l-80 0 0 50 c0 88 -36 130 -111 130 -20 0 -40 -10 -60 -29z m115
-34 c12 -9 20 -31 24 -65 l5 -52 -72 0 -71 0 0 45 c0 32 6 51 20 65 23 23 68
26 94 7z"/>
<path d="M5810 2140 l0 -40 220 0 220 0 0 40 0 40 -220 0 -220 0 0 -40z"/>
<path d="M5144 2131 c-48 -30 -64 -82 -64 -216 l0 -115 280 0 280 0 0 55 0 55
-120 0 -120 0 0 40 c0 30 7 47 25 65 21 22 33 25 104 25 107 0 111 2 111 61
l0 49 -67 -1 c-103 0 -160 -13 -189 -40 -23 -21 -27 -22 -37 -9 -40 53 -142
68 -203 31z m146 -99 c16 -13 24 -32 28 -70 l5 -52 -82 0 -81 0 0 45 c0 80 73
123 130 77z"/>
<path d="M9240 1980 l0 -100 25 0 c22 0 25 4 25 35 l0 35 135 0 135 0 0 30 0
30 -135 0 -135 0 0 35 c0 31 -3 35 -25 35 l-25 0 0 -100z"/>
<path d="M6124 2006 l-110 -53 -94 48 c-52 26 -99 48 -103 48 -5 1 -7 -18 -5
-41 3 -42 4 -43 66 -67 34 -13 62 -27 62 -31 0 -4 -29 -20 -65 -35 l-65 -28 0
-46 0 -47 108 52 107 51 107 -53 c59 -30 110 -54 113 -54 4 0 5 19 3 42 -3 42
-3 42 -75 73 -40 17 -75 34 -78 36 -3 3 31 20 75 38 l80 33 0 44 c0 24 -4 44
-9 44 -4 0 -57 -24 -117 -54z"/>
<path d="M4460 1870 c0 -113 1 -120 20 -120 17 0 20 7 20 45 l0 45 195 0 195
0 0 25 0 25 -192 2 -193 3 -3 48 c-3 39 -6 47 -23 47 -18 0 -19 -8 -19 -120z"/>
<path d="M2719 1941 c-28 -28 -29 -34 -29 -115 l0 -86 180 0 180 0 0 25 c0 25
-1 25 -80 25 l-80 0 0 50 c0 61 -16 97 -51 116 -45 23 -87 18 -120 -15z m115
-34 c12 -9 20 -31 24 -65 l5 -52 -72 0 -71 0 0 45 c0 32 6 51 20 65 23 23 68
26 94 7z"/>
<path d="M9395 1861 l-150 -38 -3 -40 -3 -40 153 -37 c84 -20 158 -36 164 -36
6 0 9 12 6 29 -3 25 -9 30 -43 35 -38 6 -39 8 -39 46 0 39 1 40 40 46 37 6 40
9 40 40 0 19 -3 34 -7 33 -5 -1 -75 -18 -158 -38z m35 -80 l0 -29 -47 10 c-78
15 -81 20 -23 33 30 7 58 13 63 14 4 0 7 -12 7 -28z"/>
<path d="M2430 1776 l0 -96 -80 0 -79 0 -3 88 -3 87 -40 0 -40 0 -3 -87 -3
-88 -64 0 -65 0 0 90 0 90 -45 0 -46 0 3 -137 3 -138 270 0 270 0 0 140 0 140
-37 3 -38 3 0 -95z"/>
<path d="M4523 1708 c-43 -11 -63 -43 -63 -99 0 -56 30 -94 82 -104 59 -11 98
13 142 88 29 51 46 69 71 77 94 31 147 -88 55 -123 -21 -8 -30 -18 -30 -34 0
-46 83 -12 106 42 18 44 18 69 -1 110 -19 38 -51 55 -105 55 -62 0 -88 -18
-130 -91 -22 -37 -47 -69 -56 -73 -53 -20 -97 7 -92 58 2 24 10 34 35 46 18 8
33 23 33 32 0 23 -10 27 -47 16z"/>
<path d="M5177 1696 c-50 -18 -67 -34 -88 -81 -31 -68 -19 -155 29 -208 74
-82 341 -100 457 -32 75 43 96 148 45 217 -20 27 -20 27 0 33 16 5 20 15 20
46 l0 39 -153 0 c-85 0 -156 -2 -158 -4 -2 -2 -3 -45 -1 -95 l3 -91 40 0 39 0
0 41 0 41 59 -4 c73 -5 91 -19 91 -69 0 -33 -5 -42 -31 -58 -66 -40 -282 -35
-339 7 -19 15 -25 28 -25 58 0 34 4 41 32 54 31 14 33 18 33 68 0 57 1 57 -53
38z"/>
<path d="M5810 1675 l0 -35 148 0 147 -1 -105 -40 c-58 -22 -124 -48 -147 -57
-42 -16 -43 -17 -43 -64 l0 -48 220 0 220 0 0 35 0 35 -159 2 -160 3 160 59
159 60 0 43 0 43 -220 0 -220 0 0 -35z"/>
<path d="M2865 1635 l-170 -52 -3 -34 -3 -34 168 -49 c92 -26 174 -50 181 -53
7 -3 12 5 12 20 0 22 -7 28 -55 42 l-55 16 0 58 0 58 53 15 c45 12 52 18 55
41 2 15 0 27 -5 26 -4 0 -84 -24 -178 -54z m35 -91 c0 -33 -4 -45 -12 -41 -7
2 -46 13 -87 23 l-74 19 69 22 c102 32 104 31 104 -23z"/>
<path d="M9510 1581 l0 -61 -45 0 -45 0 0 55 c0 52 -1 55 -25 55 -24 0 -25 -3
-25 -55 l0 -55 -40 0 -40 0 0 55 c0 52 -1 55 -25 55 -25 0 -25 -1 -25 -85 l0
-85 160 0 160 0 0 80 c0 44 0 83 0 88 0 4 -11 8 -25 10 -24 3 -25 2 -25 -57z"/>
<path d="M1964 1476 c-3 -8 -4 -27 -2 -43 l3 -28 180 -3 180 -3 -180 -67 -180
-67 0 -55 0 -55 270 0 270 0 3 43 3 42 -198 0 -198 1 165 59 c91 33 180 65
198 71 31 10 32 12 32 65 l0 54 -270 0 c-224 0 -272 -2 -276 -14z"/>
<path d="M4460 1405 l0 -25 215 0 215 0 0 25 0 25 -215 0 -215 0 0 -25z"/>
<path d="M9261 1384 c-17 -22 -21 -41 -21 -100 l0 -74 159 0 159 0 4 30 5 30
-69 0 c-68 0 -68 0 -68 28 0 40 17 52 75 52 60 0 64 2 57 35 -4 23 -9 25 -56
25 -28 0 -64 -7 -80 -15 -26 -14 -31 -14 -46 0 -9 8 -35 15 -58 15 -32 0 -45
-6 -61 -26z m109 -48 c6 -8 10 -25 8 -38 -2 -19 -10 -23 -45 -26 -43 -3 -43
-3 -43 31 0 18 3 37 7 40 12 12 60 7 73 -7z"/>
<path d="M6018 1337 l-208 -52 0 -55 0 -55 208 -49 c114 -27 213 -51 220 -54
10 -3 12 6 10 39 l-3 44 -53 9 -53 9 3 55 3 56 50 11 c50 10 50 10 53 53 2 30
-1 42 -10 41 -7 -1 -106 -24 -220 -52z m52 -113 c0 -19 -1 -34 -2 -34 -2 0
-43 9 -93 19 -67 14 -84 20 -65 25 87 21 146 32 153 29 4 -2 7 -20 7 -39z"/>
<path d="M2690 1335 c0 -24 2 -25 75 -25 l75 0 0 -70 0 -70 -75 0 c-73 0 -75
-1 -75 -25 l0 -25 180 0 180 0 0 25 c0 25 -1 25 -85 25 l-85 0 0 70 0 70 85 0
c84 0 85 0 85 25 l0 25 -180 0 -180 0 0 -25z"/>
<path d="M4460 1266 c0 -41 -11 -36 198 -86 l153 -36 -133 -29 c-212 -46 -213
-46 -213 -86 l0 -34 213 -3 212 -2 0 26 0 26 -184 -4 c-101 -2 -183 -1 -181 1
2 2 84 20 182 40 171 36 178 38 181 62 3 25 0 26 -165 63 -92 21 -172 39 -178
41 -5 2 70 4 168 4 l177 1 0 25 0 25 -215 0 -215 0 0 -34z"/>
<path d="M9240 1080 l0 -100 25 0 c22 0 25 4 25 35 l0 35 134 0 134 0 4 25 c3
13 3 27 0 30 -3 3 -65 5 -139 5 l-133 0 0 35 c0 31 -3 35 -25 35 l-25 0 0
-100z"/>
<path d="M2370 1075 c-52 -12 -166 -39 -252 -60 l-158 -37 0 -58 c0 -33 4 -61
9 -65 10 -5 519 -125 534 -125 4 0 7 21 5 48 l-3 47 -67 14 -68 14 0 63 0 62
70 13 70 12 0 49 c0 58 0 58 -140 23z m-80 -160 c0 -25 -1 -45 -3 -45 -12 0
-211 41 -214 44 -3 3 170 40 210 45 4 1 7 -19 7 -44z"/>
<path d="M2690 1010 c0 -19 7 -20 148 -21 l147 0 -147 -71 c-147 -71 -148 -71
-148 -105 l0 -33 180 0 180 0 0 25 0 25 -147 1 -148 0 148 71 c138 67 147 73
147 100 l0 28 -180 0 c-173 0 -180 -1 -180 -20z"/>
<path d="M4460 885 l0 -25 215 0 215 0 0 25 0 25 -215 0 -215 0 0 -25z"/>
<path d="M4460 695 c0 -108 1 -115 20 -115 17 0 20 7 20 45 l0 45 195 0 195 0
0 25 0 25 -195 0 -195 0 0 45 c0 38 -3 45 -20 45 -19 0 -20 -7 -20 -115z"/>
<path d="M2690 676 l0 -26 143 0 c167 0 187 -7 187 -69 0 -65 -15 -71 -183
-71 l-147 0 0 -25 0 -25 155 0 c149 0 157 1 179 23 44 44 42 151 -5 193 -18
17 -40 19 -175 22 l-154 3 0 -25z"/>
<path d="M4522 535 c-43 -19 -62 -66 -62 -150 l0 -65 215 0 215 0 0 25 c0 25
-1 25 -90 25 l-90 0 0 35 c0 44 -20 94 -48 119 -28 24 -98 30 -140 11z m118
-53 c15 -12 24 -33 27 -65 l6 -47 -87 0 -86 0 0 40 c0 76 83 118 140 72z"/>
<path d="M4545 238 c-16 -6 -42 -22 -57 -36 -23 -21 -28 -34 -28 -75 0 -65 36
-101 118 -118 70 -14 208 -7 248 14 91 47 97 158 11 204 -39 21 -244 29 -292
11z m254 -47 c13 -3 34 -19 45 -34 19 -26 19 -30 6 -55 -22 -38 -85 -54 -197
-50 -112 5 -148 24 -148 79 0 52 43 69 170 68 55 -1 111 -4 124 -8z"/>
</g>
</svg>
